<svg width="320" height="350" viewBox="0 0 320 350" fill="none" xmlns="http://www.w3.org/2000/svg">
<path fill-rule="evenodd" clip-rule="evenodd" d="M70.7035 224.507C40.092 186.647 5.921 151.182 9.2216 119.211C12.4575 87.3054 53.2944 58.8942 92.384 48.1511C131.538 37.4727 168.945 44.4622 206.934 59.3473C244.859 74.1677 283.366 96.8836 293.268 129.242C303.105 161.537 284.337 203.538 256.573 240.751C228.809 277.899 192.049 310.323 160.208 306.375C128.302 302.492 101.315 262.302 70.7035 224.507Z" fill="#F8F8F8"/>
<path d="M216 134C216 135.657 214.657 137 213 137C211.343 137 210 135.657 210 134C210 132.343 211.343 131 213 131C214.657 131 216 132.343 216 134Z" fill="#1AD6CA"/>
<circle cx="24.0001" cy="164" r="5" fill="#1A9ED6"/>
<circle cx="104" cy="299" r="5" fill="#0ED6B2"/>
<path fill-rule="evenodd" clip-rule="evenodd" d="M195.231 80.5977C198.626 80.1116 202.036 79.922 205.462 80.0289C205.66 80.0351 205.85 80.0791 206.032 80.1609C206.213 80.2428 206.372 80.3562 206.508 80.5011C206.644 80.6461 206.747 80.8116 206.818 80.9977C206.888 81.1837 206.92 81.3762 206.914 81.575C206.914 81.5782 206.914 81.5815 206.914 81.5847C206.913 81.588 206.913 81.5912 206.913 81.5945C206.895 82.0045 206.736 82.349 206.435 82.6281C206.134 82.9071 205.778 83.0403 205.368 83.0275C202.116 82.926 198.879 83.1059 195.656 83.5674C195.249 83.6256 194.881 83.5326 194.551 83.2886C194.221 83.0446 194.025 82.7199 193.961 82.3144C193.961 82.3112 193.96 82.308 193.96 82.3048C193.959 82.3016 193.959 82.2983 193.958 82.2951C193.93 82.0982 193.941 81.9034 193.99 81.7107C194.039 81.518 194.124 81.3421 194.243 81.1829C194.362 81.0237 194.507 80.8935 194.679 80.7921C194.85 80.6907 195.034 80.6259 195.231 80.5977V80.5977ZM213.854 82.3952C213.853 82.3984 213.853 82.4015 213.852 82.4047C213.851 82.4078 213.851 82.411 213.85 82.4141C213.813 82.6061 213.814 82.7981 213.852 82.9899C213.89 83.1818 213.962 83.3594 214.07 83.5228C214.179 83.689 214.316 83.8279 214.481 83.9396C214.645 84.0513 214.825 84.1272 215.02 84.1674C216.437 84.4598 217.844 84.8064 219.242 85.2071C221.004 85.7124 222.733 86.2987 224.429 86.966C224.614 87.0388 224.806 87.0735 225.005 87.0699C225.203 87.0664 225.394 87.0249 225.576 86.9455C225.756 86.8675 225.914 86.7585 226.051 86.6186C226.187 86.4788 226.293 86.3183 226.366 86.1372C226.368 86.1343 226.369 86.1313 226.37 86.1283C226.371 86.1254 226.373 86.1224 226.374 86.1194C226.525 85.7339 226.519 85.3513 226.353 84.9715C226.188 84.5917 225.913 84.326 225.527 84.1743C223.742 83.472 221.923 82.855 220.068 82.3233C218.598 81.9017 217.117 81.537 215.626 81.2293C215.22 81.1456 214.845 81.2176 214.499 81.4452C214.152 81.6729 213.938 81.9896 213.854 82.3952V82.3952ZM187.14 83.9016C187.199 84.0883 187.219 84.2791 187.203 84.474C187.187 84.6689 187.134 84.8534 187.045 85.0277C186.955 85.205 186.834 85.3583 186.683 85.4876C186.532 85.6169 186.362 85.7123 186.173 85.7739C183.198 86.7427 180.321 87.9497 177.543 89.3949C177.429 89.4543 177.315 89.514 177.201 89.574C177.025 89.667 176.838 89.7228 176.64 89.7414C176.442 89.76 176.248 89.74 176.058 89.6814C175.868 89.6228 175.697 89.5301 175.543 89.4032C175.39 89.2763 175.267 89.1249 175.174 88.9491C175.081 88.7732 175.025 88.5863 175.007 88.3883C174.988 88.1902 175.008 87.9962 175.067 87.8061C175.125 87.616 175.218 87.4443 175.345 87.2912C175.472 87.138 175.623 87.0149 175.799 86.9219C178.835 85.3167 181.983 83.9832 185.244 82.9213C185.638 82.7931 186.019 82.8229 186.389 83.0107C186.758 83.1985 187.006 83.4893 187.135 83.8832C187.136 83.8862 187.137 83.8893 187.138 83.8924C187.139 83.8955 187.14 83.8985 187.14 83.9016V83.9016ZM232.63 89.2257C232.629 89.2285 232.627 89.2313 232.625 89.2341C232.624 89.2369 232.622 89.2397 232.62 89.2425C232.411 89.5957 232.356 89.9713 232.456 90.3695C232.555 90.7677 232.78 91.0736 233.13 91.2872C235.926 92.9911 238.554 94.9259 241.014 97.0916C241.163 97.2231 241.332 97.3209 241.52 97.3852C241.709 97.4495 241.902 97.4754 242.1 97.4627C242.296 97.4503 242.481 97.4016 242.657 97.3165C242.833 97.2315 242.987 97.1164 243.118 96.9713C243.12 96.969 243.122 96.9666 243.125 96.9642C243.127 96.9617 243.129 96.9593 243.131 96.9569C243.405 96.646 243.528 96.2838 243.502 95.8705C243.476 95.4571 243.307 95.1136 242.996 94.8399C240.405 92.5585 237.637 90.5204 234.692 88.7255C234.522 88.622 234.339 88.5549 234.142 88.5243C233.946 88.4936 233.751 88.5018 233.557 88.5487C233.364 88.5956 233.187 88.6777 233.026 88.795C232.866 88.9123 232.734 89.0559 232.63 89.2257V89.2257ZM247.957 102.006C247.954 102.008 247.952 102.01 247.949 102.013C247.947 102.015 247.944 102.017 247.942 102.019C247.625 102.28 247.446 102.615 247.404 103.023C247.362 103.431 247.47 103.795 247.727 104.115C249.766 106.652 251.574 109.346 253.152 112.197C253.249 112.371 253.374 112.52 253.53 112.644C253.686 112.768 253.859 112.858 254.05 112.913C254.238 112.967 254.429 112.983 254.624 112.962C254.818 112.942 255.002 112.885 255.174 112.792C255.177 112.791 255.18 112.789 255.183 112.788C255.185 112.786 255.188 112.785 255.191 112.783C255.553 112.583 255.792 112.283 255.906 111.885C256.021 111.487 255.977 111.107 255.777 110.745C254.116 107.743 252.212 104.907 250.066 102.236C249.941 102.081 249.792 101.956 249.617 101.86C249.443 101.765 249.257 101.706 249.059 101.685C248.861 101.663 248.667 101.68 248.476 101.736C248.285 101.792 248.112 101.882 247.957 102.006V102.006ZM261.083 132.087L261.071 132.089C260.663 132.145 260.294 132.048 259.966 131.8C259.637 131.553 259.443 131.225 259.384 130.817C259.147 129.173 258.859 127.487 258.521 125.758C258.121 124.181 257.655 122.624 257.121 121.086C256.986 120.698 257.007 120.319 257.184 119.948C257.36 119.578 257.641 119.323 258.027 119.183C258.03 119.182 258.033 119.181 258.036 119.18C258.039 119.179 258.043 119.178 258.046 119.177C258.233 119.111 258.427 119.085 258.625 119.096C258.824 119.108 259.013 119.157 259.192 119.244C259.371 119.331 259.526 119.448 259.658 119.597C259.791 119.746 259.889 119.914 259.955 120.102C260.522 121.735 261.017 123.388 261.439 125.063C261.443 125.076 261.446 125.089 261.449 125.102C261.452 125.115 261.454 125.128 261.457 125.141C261.808 126.933 262.107 128.682 262.353 130.388C262.382 130.585 262.371 130.78 262.322 130.973C262.273 131.166 262.189 131.342 262.07 131.501C261.951 131.66 261.806 131.791 261.635 131.892C261.464 131.994 261.28 132.059 261.083 132.087V132.087ZM260.772 151.873C260.37 151.799 260.051 151.594 259.816 151.259C259.581 150.924 259.497 150.555 259.564 150.151C260.066 147.13 260.28 143.864 260.206 140.352C260.202 140.154 260.236 139.961 260.308 139.776C260.38 139.591 260.485 139.426 260.623 139.283C260.758 139.141 260.916 139.031 261.095 138.951C261.274 138.871 261.461 138.828 261.657 138.822C261.66 138.821 261.663 138.821 261.666 138.821C261.668 138.821 261.671 138.821 261.674 138.821C262.088 138.812 262.445 138.951 262.744 139.238C263.043 139.525 263.197 139.875 263.205 140.289C263.284 143.987 263.056 147.438 262.523 150.643C262.491 150.84 262.422 151.022 262.316 151.191C262.211 151.36 262.078 151.502 261.916 151.618C261.754 151.733 261.576 151.814 261.382 151.858C261.189 151.903 260.994 151.91 260.797 151.877C260.793 151.876 260.789 151.876 260.785 151.875C260.781 151.874 260.776 151.873 260.772 151.873V151.873ZM251.523 167.092C251.24 167.385 251.1 167.734 251.102 168.141C251.103 168.548 251.247 168.896 251.532 169.186C251.537 169.191 251.541 169.195 251.546 169.2C251.55 169.204 251.555 169.209 251.559 169.213C251.703 169.351 251.867 169.457 252.052 169.53C252.237 169.603 252.429 169.638 252.628 169.634C252.826 169.631 253.017 169.589 253.199 169.51C253.382 169.431 253.542 169.319 253.68 169.176C256.086 166.686 258.038 163.822 259.536 160.585C259.62 160.405 259.666 160.215 259.674 160.016C259.682 159.818 259.651 159.625 259.583 159.438C259.514 159.252 259.413 159.085 259.278 158.939C259.143 158.792 258.985 158.678 258.805 158.594C258.8 158.592 258.794 158.589 258.789 158.587C258.784 158.584 258.779 158.582 258.773 158.58C258.4 158.417 258.022 158.408 257.642 158.553C257.261 158.698 256.985 158.956 256.814 159.325C255.457 162.255 253.694 164.844 251.523 167.092V167.092Z" fill="#016D71"/>
<rect width="18" height="4" rx="2" transform="matrix(0.939693 -0.34202 -0.34202 -0.939693 295.65 184.646)" fill="#016D71"/>
<rect x="278.446" y="167.539" width="18" height="4" rx="2" transform="rotate(-69 278.446 167.539)" fill="#016D71"/>
<rect x="288.03" y="172.625" width="18" height="4" rx="2" transform="rotate(-49 288.03 172.625)" fill="#016D71"/>
<rect width="117.419" height="158.065" rx="11" transform="matrix(-1 0 0 1 166.871 90)" fill="#089DA1"/>
<path fill-rule="evenodd" clip-rule="evenodd" d="M69.3226 257.097H164.161C170.147 257.097 175 252.244 175 246.258V109.871C175 103.885 170.147 99.0322 164.161 99.0322H69.3226C63.3365 99.0322 58.4839 103.885 58.4839 109.871V235.419H61.1936V109.871C61.1936 107.626 61.9872 105.71 63.5745 104.123C65.1618 102.536 67.0778 101.742 69.3226 101.742H164.161C166.406 101.742 168.322 102.536 169.909 104.123C171.497 105.71 172.29 107.626 172.29 109.871L172.29 246.258C172.29 248.503 171.497 250.419 169.909 252.006C168.322 253.593 166.406 254.387 164.161 254.387H69.3226V257.097V257.097Z" fill="#016D71"/>
<path fill-rule="evenodd" clip-rule="evenodd" d="M35 245.355C35 251.84 40.257 257.097 46.7419 257.097H163.258C169.743 257.097 175 251.84 175 245.355H172.29C172.29 247.849 171.408 249.978 169.645 251.742C167.881 253.505 165.752 254.387 163.258 254.387H46.7419C44.2478 254.387 42.1188 253.505 40.3552 251.742C38.5915 249.978 37.7097 247.849 37.7097 245.355H35V245.355Z" fill="#016D71"/>
<path fill-rule="evenodd" clip-rule="evenodd" d="M35.0693 245.355H35.0001V230H61.1936V245.355H61.1244C60.4464 251.951 54.8725 257.097 48.0968 257.097C41.3211 257.097 35.7472 251.951 35.0693 245.355V245.355ZM58.4839 244.542V232.71H37.7097V244.542L37.7647 245.078C38.0346 247.704 39.1523 249.909 41.1177 251.693C43.0959 253.489 45.4222 254.387 48.0968 254.387C50.7713 254.387 53.0977 253.489 55.0758 251.693C57.0413 249.909 58.159 247.704 58.4288 245.078L58.4839 244.542V244.542Z" fill="#016D71"/>
<rect width="90.3226" height="2.70968" rx="1.35484" transform="matrix(-1 0 0 1 161.452 170.387)" fill="#016D71"/>
<rect width="90.3226" height="2.70968" rx="1.35484" transform="matrix(-1 0 0 1 161.452 152.323)" fill="#016D71"/>
<rect width="72.2581" height="2.70968" rx="1.35484" transform="matrix(-1 0 0 1 143.387 134.258)" fill="#016D71"/>
<rect width="54.1936" height="2.70968" rx="1.35484" transform="matrix(-1 0 0 1 125.323 116.193)" fill="#016D71"/>
<rect width="90.3226" height="2.70968" rx="1.35484" transform="matrix(-1 0 0 1 161.452 188.452)" fill="#016D71"/>
<rect width="90.3226" height="2.70968" rx="1.35484" transform="matrix(-1 0 0 1 161.452 206.516)" fill="#016D71"/>
<rect width="90.3226" height="2.70968" rx="1.35484" transform="matrix(-1 0 0 1 161.452 224.581)" fill="#016D71"/>
<rect x="114" y="171" width="162.553" height="117.908" rx="8" fill="white"/>
<rect x="130.026" y="183.592" width="157.974" height="112.184" rx="8" fill="#0DB4B8"/>
<path fill-rule="evenodd" clip-rule="evenodd" d="M267.396 176.724H127.736C125.207 176.724 123.049 177.618 121.261 179.406C119.473 181.194 118.579 183.352 118.579 185.88V279.751C118.579 282.28 119.473 284.438 121.261 286.226C123.049 288.014 125.207 288.908 127.736 288.908H267.396C269.925 288.908 272.083 288.014 273.871 286.226C275.659 284.438 276.553 282.28 276.553 279.751V185.88C276.553 183.352 275.659 181.194 273.871 179.406C272.083 177.618 269.925 176.724 267.396 176.724V176.724ZM123.689 181.834C124.807 180.717 126.156 180.158 127.736 180.158H267.396C268.976 180.158 270.325 180.717 271.442 181.834C272.56 182.951 273.119 184.3 273.119 185.88V279.751C273.119 281.331 272.56 282.68 271.442 283.798C270.325 284.915 268.976 285.474 267.396 285.474H127.736C126.156 285.474 124.807 284.915 123.689 283.798C122.572 282.68 122.013 281.331 122.013 279.751L122.013 185.88C122.013 184.3 122.572 182.951 123.689 181.834V181.834Z" fill="#016D71"/>
<rect x="162.079" y="190.46" width="114.474" height="3.43421" rx="1.5" fill="#016D71"/>
<path fill-rule="evenodd" clip-rule="evenodd" d="M226.378 262.851L201.674 212.562C201.29 211.779 200.727 211.156 199.986 210.695C199.245 210.233 198.438 210.002 197.566 210.002C196.693 210.002 195.886 210.233 195.145 210.695C194.404 211.156 193.842 211.779 193.457 212.562L168.753 262.851C168.405 263.561 168.25 264.31 168.29 265.1C168.33 265.889 168.559 266.619 168.976 267.29C169.394 267.961 169.949 268.488 170.64 268.872C171.331 269.256 172.072 269.447 172.862 269.447H222.269C223.06 269.447 223.8 269.256 224.491 268.872C225.182 268.488 225.737 267.961 226.155 267.29C226.573 266.619 226.802 265.889 226.841 265.1C226.881 264.31 226.727 263.561 226.378 262.851V262.851ZM197.566 213.436C198.041 213.436 198.383 213.65 198.592 214.076L223.296 264.365C223.483 264.745 223.464 265.115 223.24 265.474C223.016 265.833 222.693 266.013 222.269 266.013H172.862C172.439 266.013 172.115 265.833 171.892 265.474C171.668 265.115 171.649 264.745 171.836 264.365L196.539 214.076C196.749 213.65 197.091 213.436 197.566 213.436V213.436Z" fill="#016D71"/>
<path fill-rule="evenodd" clip-rule="evenodd" d="M194.417 228.225C194.263 226.382 195.717 224.802 197.566 224.802V224.802C199.414 224.802 200.868 226.382 200.715 228.225L198.806 251.135C198.752 251.78 198.213 252.276 197.566 252.276V252.276C196.919 252.276 196.38 251.78 196.326 251.135L194.417 228.225Z" fill="#016D71"/>
<circle cx="197.566" cy="258" r="3.43421" fill="#016D71"/>
</svg>
