<svg width="320" height="350" viewBox="0 0 320 350" fill="none" xmlns="http://www.w3.org/2000/svg">
<path fill-rule="evenodd" clip-rule="evenodd" d="M239.575 125.195C270.187 163.054 304.358 198.52 301.057 230.49C297.821 262.396 256.984 290.807 217.895 301.551C178.741 312.229 141.334 305.239 103.344 290.354C65.4198 275.534 26.9127 252.818 17.0109 220.459C7.17379 188.165 25.9419 146.163 53.7059 108.95C81.4698 71.8024 118.229 39.3788 150.071 43.3266C181.976 47.2097 208.964 87.3994 239.575 125.195Z" fill="#F8F8F8"/>
<circle cx="262.362" cy="148.437" r="3" fill="#1AD6CA"/>
<circle cx="91.3619" cy="272.437" r="5" fill="#1A9ED6"/>
<circle cx="122.362" cy="64.437" r="5" fill="#0ED6B2"/>
<path fill-rule="evenodd" clip-rule="evenodd" d="M213.938 88.7734C217.316 88.3031 220.708 88.0416 224.114 87.989C224.313 87.9859 224.504 88.021 224.689 88.0942C224.874 88.1675 225.038 88.2734 225.181 88.4118C225.324 88.5503 225.435 88.7108 225.514 88.8934C225.593 89.076 225.634 89.2667 225.637 89.4656L225.637 89.4794C225.639 89.8909 225.497 90.2437 225.209 90.5379C224.921 90.832 224.572 90.9822 224.16 90.9886C220.878 91.0394 217.608 91.2914 214.351 91.7448C213.944 91.8015 213.575 91.7066 213.246 91.46C212.916 91.2134 212.721 90.8866 212.661 90.4795C212.66 90.4773 212.66 90.475 212.66 90.4727C212.659 90.4705 212.659 90.4682 212.659 90.4659C212.631 90.2689 212.643 90.0741 212.693 89.8816C212.743 89.6891 212.828 89.5135 212.948 89.3548C213.068 89.1961 213.213 89.0664 213.385 88.9657C213.556 88.8649 213.741 88.8009 213.938 88.7734V88.7734ZM232.631 89.7875C232.631 89.7898 232.631 89.7921 232.631 89.7944C232.63 89.7967 232.63 89.799 232.63 89.8013C232.589 90.2108 232.699 90.5752 232.959 90.8945C233.218 91.2139 233.552 91.3956 233.962 91.4398C237.214 91.7907 240.436 92.3401 243.627 93.0879C244.028 93.1817 244.403 93.121 244.754 92.9057C245.105 92.6903 245.329 92.3828 245.426 91.983C245.427 91.9808 245.427 91.9785 245.428 91.9763C245.428 91.9741 245.429 91.9718 245.43 91.9696C245.475 91.7759 245.482 91.581 245.449 91.3847C245.417 91.1884 245.349 91.0057 245.244 90.8367C245.139 90.6677 245.006 90.5251 244.844 90.4091C244.683 90.2931 244.505 90.2123 244.311 90.167C241.001 89.3912 237.658 88.8212 234.283 88.4571C234.086 88.4357 233.891 88.453 233.701 88.509C233.51 88.565 233.337 88.6553 233.182 88.7801C233.027 88.9048 232.902 89.0545 232.806 89.229C232.711 89.4036 232.653 89.5897 232.631 89.7875V89.7875ZM205.798 91.8658C205.9 92.2645 205.847 92.6414 205.639 92.9965C205.431 93.3516 205.128 93.5821 204.731 93.688C201.687 94.4982 198.701 95.4832 195.771 96.6429C195.652 96.6902 195.533 96.7377 195.413 96.7856C195.029 96.9399 194.646 96.9356 194.265 96.7729C193.884 96.6102 193.617 96.3366 193.463 95.9522C193.388 95.7676 193.353 95.5759 193.355 95.377C193.357 95.1781 193.397 94.9872 193.475 94.8042C193.553 94.6213 193.664 94.4603 193.806 94.3212C193.948 94.1821 194.111 94.0755 194.296 94.0014C197.453 92.7343 200.674 91.6635 203.959 90.789C204.151 90.7378 204.346 90.7254 204.543 90.7517C204.74 90.7779 204.925 90.8409 205.097 90.9407C205.269 91.0404 205.415 91.1693 205.536 91.3273C205.657 91.4853 205.743 91.6604 205.794 91.8526C205.795 91.8548 205.795 91.857 205.796 91.8592C205.796 91.8614 205.797 91.8636 205.798 91.8658V91.8658ZM252.136 93.9789C252.135 93.981 252.134 93.9831 252.134 93.9852C252.133 93.9874 252.132 93.9895 252.131 93.9916C251.993 94.3793 252.011 94.7594 252.186 95.1321C252.361 95.5047 252.641 95.7619 253.028 95.9037C253.858 96.2082 254.684 96.5266 255.506 96.8588C257.746 97.7636 259.935 98.7628 262.074 99.8562C262.441 100.044 262.82 100.075 263.212 99.9499C263.604 99.825 263.896 99.5802 264.086 99.2154C264.087 99.2134 264.088 99.2114 264.089 99.2094C264.09 99.2074 264.092 99.2054 264.093 99.2033C264.183 99.0262 264.236 98.8386 264.252 98.6403C264.268 98.442 264.245 98.2482 264.184 98.059C264.123 97.8697 264.028 97.6994 263.899 97.5479C263.77 97.3965 263.617 97.2755 263.44 97.185C261.222 96.0512 258.952 95.0153 256.63 94.0772C255.778 93.7329 254.921 93.4028 254.061 93.0871C253.874 93.0186 253.681 92.9885 253.482 92.9967C253.284 93.0049 253.094 93.0508 252.914 93.1344C252.733 93.218 252.575 93.333 252.441 93.4793C252.306 93.6256 252.204 93.7921 252.136 93.9789V93.9789ZM270.119 102.763C270.117 102.765 270.116 102.767 270.115 102.769C270.114 102.771 270.112 102.773 270.111 102.775C270.003 102.938 269.929 103.117 269.89 103.309C269.852 103.502 269.851 103.695 269.888 103.888C269.926 104.083 270 104.264 270.109 104.43C270.219 104.596 270.356 104.734 270.521 104.846C273.235 106.682 275.826 108.677 278.292 110.83C278.602 111.101 278.963 111.223 279.373 111.197C279.784 111.171 280.126 111.004 280.4 110.697L280.409 110.686C280.54 110.537 280.637 110.367 280.7 110.179C280.764 109.99 280.789 109.797 280.775 109.598C280.762 109.4 280.711 109.212 280.623 109.034C280.534 108.855 280.415 108.701 280.265 108.57C277.706 106.336 275.018 104.266 272.202 102.361C271.859 102.129 271.484 102.052 271.077 102.131C270.67 102.209 270.351 102.42 270.119 102.763V102.763ZM285.39 115.605C285.388 115.606 285.386 115.608 285.385 115.609C285.383 115.611 285.381 115.612 285.38 115.614C285.234 115.746 285.12 115.901 285.035 116.079C284.951 116.256 284.903 116.443 284.893 116.639C284.882 116.838 284.909 117.031 284.975 117.219C285.041 117.407 285.14 117.575 285.273 117.723C287.457 120.161 289.486 122.727 291.36 125.419C291.474 125.582 291.614 125.717 291.782 125.825C291.949 125.932 292.131 126.003 292.326 126.038C292.52 126.073 292.713 126.07 292.905 126.028C293.097 125.987 293.274 125.911 293.437 125.8C293.439 125.799 293.44 125.798 293.442 125.797C293.444 125.795 293.446 125.794 293.448 125.793C293.788 125.556 293.994 125.234 294.067 124.826C294.14 124.418 294.059 124.045 293.822 123.705C291.878 120.912 289.773 118.251 287.508 115.721C287.231 115.413 286.886 115.247 286.473 115.224C286.059 115.201 285.698 115.328 285.39 115.605V115.605ZM297.091 131.772C297.089 131.773 297.087 131.774 297.085 131.776C297.083 131.777 297.081 131.778 297.079 131.779C296.717 131.975 296.477 132.269 296.357 132.663C296.238 133.057 296.274 133.436 296.467 133.8C297.999 136.697 299.351 139.676 300.521 142.739C300.668 143.123 300.929 143.4 301.304 143.57C301.679 143.739 302.06 143.752 302.445 143.609C302.447 143.608 302.45 143.607 302.452 143.606C302.454 143.606 302.456 143.605 302.458 143.604C302.644 143.533 302.809 143.429 302.953 143.292C303.098 143.156 303.211 142.996 303.292 142.815C303.373 142.633 303.416 142.443 303.422 142.244C303.427 142.045 303.395 141.853 303.324 141.667C302.109 138.492 300.708 135.402 299.119 132.397C299.026 132.221 298.903 132.07 298.749 131.943C298.596 131.816 298.425 131.723 298.234 131.665C298.044 131.606 297.85 131.586 297.652 131.605C297.454 131.624 297.267 131.679 297.091 131.772V131.772ZM306.784 163.145C306.781 163.145 306.778 163.145 306.776 163.145C306.773 163.145 306.77 163.146 306.768 163.146C306.358 163.176 305.997 163.057 305.684 162.79C305.372 162.523 305.198 162.184 305.164 161.774L305.02 160.046C304.635 157.374 304.116 154.726 303.464 152.103C303.416 151.91 303.406 151.715 303.436 151.518C303.465 151.322 303.532 151.138 303.634 150.968C303.735 150.799 303.865 150.656 304.022 150.539C304.18 150.421 304.354 150.338 304.544 150.289C304.546 150.288 304.549 150.288 304.551 150.287C304.553 150.286 304.555 150.286 304.557 150.285C304.959 150.185 305.338 150.242 305.693 150.456C306.048 150.669 306.275 150.977 306.375 151.379C307.055 154.115 307.595 156.876 307.996 159.663C307.998 159.678 308 159.693 308.001 159.708C308.003 159.722 308.005 159.737 308.006 159.752L308.154 161.525C308.17 161.723 308.148 161.917 308.088 162.107C308.027 162.296 307.933 162.467 307.804 162.619C307.676 162.77 307.523 162.892 307.346 162.983C307.169 163.074 306.982 163.128 306.784 163.145V163.145ZM306.531 183.106C306.121 183.066 305.785 182.887 305.523 182.57C305.26 182.253 305.147 181.889 305.184 181.479C305.466 178.348 305.6 175.063 305.584 171.625C305.583 171.426 305.62 171.234 305.695 171.05C305.77 170.866 305.878 170.703 306.018 170.562C306.157 170.422 306.317 170.313 306.499 170.236C306.681 170.159 306.87 170.12 307.068 170.118L307.077 170.118C307.491 170.116 307.845 170.261 308.139 170.552C308.434 170.844 308.582 171.197 308.584 171.611C308.6 175.144 308.463 178.523 308.172 181.748C308.154 181.946 308.099 182.133 308.007 182.31C307.915 182.486 307.792 182.638 307.639 182.765C307.487 182.893 307.315 182.986 307.125 183.045C306.936 183.105 306.742 183.125 306.544 183.107L306.531 183.106V183.106ZM300.906 200.534C300.754 200.915 300.758 201.294 300.918 201.672C301.077 202.05 301.346 202.317 301.725 202.475C301.728 202.476 301.731 202.477 301.735 202.479C301.738 202.48 301.741 202.481 301.744 202.483C301.929 202.556 302.121 202.592 302.32 202.589C302.519 202.586 302.71 202.546 302.892 202.467C303.075 202.388 303.236 202.278 303.375 202.135C303.513 201.993 303.619 201.829 303.693 201.644C304.905 198.601 305.892 195.333 306.654 191.839C306.742 191.435 306.674 191.058 306.45 190.709C306.226 190.361 305.912 190.142 305.508 190.054C305.505 190.054 305.502 190.053 305.5 190.053C305.497 190.052 305.495 190.051 305.492 190.051C305.3 190.011 305.107 190.009 304.915 190.045C304.722 190.081 304.543 190.152 304.378 190.258C304.21 190.365 304.07 190.5 303.956 190.664C303.843 190.827 303.765 191.006 303.722 191.2C302.996 194.533 302.057 197.644 300.906 200.534V200.534ZM289.74 217.428C289.732 217.622 289.76 217.811 289.825 217.993C289.89 218.176 289.987 218.341 290.116 218.486C290.119 218.489 290.122 218.493 290.125 218.496C290.128 218.5 290.131 218.503 290.134 218.506C290.414 218.811 290.761 218.973 291.175 218.99C291.589 219.008 291.949 218.877 292.254 218.596C294.779 216.277 297.012 213.661 298.953 210.748C299.183 210.403 299.257 210.028 299.176 209.621C299.095 209.215 298.882 208.897 298.537 208.668C298.533 208.665 298.53 208.663 298.526 208.661C298.523 208.658 298.519 208.656 298.516 208.654C298.352 208.549 298.175 208.478 297.983 208.442C297.792 208.406 297.601 208.407 297.411 208.445C297.216 208.484 297.036 208.559 296.87 208.67C296.705 208.78 296.567 208.918 296.457 209.084C294.649 211.796 292.572 214.231 290.224 216.387C290.078 216.522 289.963 216.679 289.879 216.859C289.795 217.04 289.749 217.229 289.74 217.428V217.428Z" fill="#016D71"/>
<rect width="17.8898" height="4.0505" rx="2" transform="matrix(-0.48481 -0.87462 -0.87462 0.48481 52.0886 100.422)" fill="#016D71"/>
<rect x="37.6116" y="120.451" width="17.8898" height="4.0505" rx="2" transform="rotate(-168 37.6116 120.451)" fill="#016D71"/>
<rect x="41.2559" y="110.044" width="17.8898" height="4.0505" rx="2" transform="rotate(-148 41.2559 110.044)" fill="#016D71"/>
<path fill-rule="evenodd" clip-rule="evenodd" d="M56.3618 117.437C50.839 117.437 46.3618 121.914 46.3618 127.437V141.437C46.3618 146.96 50.839 151.437 56.3618 151.437C50.839 151.437 46.3618 155.914 46.3618 161.437V175.437C46.3618 180.96 50.839 185.437 56.3618 185.437C50.839 185.437 46.3618 189.914 46.3618 195.437V209.437C46.3618 214.96 50.839 219.437 56.3618 219.437C50.839 219.437 46.3618 223.914 46.3618 229.437V243.437C46.3618 248.96 50.839 253.437 56.3618 253.437H209.362C214.885 253.437 219.362 248.96 219.362 243.437V229.437C219.362 223.914 214.885 219.437 209.362 219.437C214.885 219.437 219.362 214.96 219.362 209.437V195.437C219.362 189.914 214.885 185.437 209.362 185.437C214.885 185.437 219.362 180.96 219.362 175.437V161.437C219.362 155.914 214.885 151.437 209.362 151.437C214.885 151.437 219.362 146.96 219.362 141.437V127.437C219.362 121.914 214.885 117.437 209.362 117.437H56.3618Z" fill="#0DB4B8"/>
<path fill-rule="evenodd" clip-rule="evenodd" d="M67.3608 106.937H220.363C223.538 106.937 226.249 108.06 228.494 110.305C230.739 112.55 231.862 115.261 231.862 118.436V132.438C231.862 135.613 230.739 138.324 228.494 140.569C226.249 142.814 223.538 143.937 220.363 143.937H67.3608C64.1855 143.937 61.4751 142.814 59.2298 140.569C56.9845 138.324 55.8618 135.613 55.8618 132.438L55.8618 118.436C55.8618 115.261 56.9845 112.55 59.2298 110.305C61.4751 108.06 64.1855 106.937 67.3608 106.937V106.937ZM67.3608 109.937C65.0139 109.937 63.0106 110.767 61.3511 112.426C59.6916 114.086 58.8618 116.089 58.8618 118.436L58.8618 132.438C58.8618 134.785 59.6916 136.788 61.3511 138.448C63.0106 140.107 65.0139 140.937 67.3608 140.937H220.363C222.71 140.937 224.713 140.107 226.373 138.448C228.032 136.788 228.862 134.785 228.862 132.438V118.436C228.862 116.089 228.032 114.086 226.373 112.426C224.713 110.767 222.71 109.937 220.363 109.937H67.3608V109.937Z" fill="#016D71"/>
<rect x="83.3618" y="124.437" width="52" height="3" rx="1.5" fill="#016D71"/>
<circle cx="73.3618" cy="126.437" r="5" fill="#016D71"/>
<path fill-rule="evenodd" clip-rule="evenodd" d="M67.3608 140.937H220.363C223.538 140.937 226.249 142.06 228.494 144.305C230.739 146.55 231.862 149.261 231.862 152.436V166.438C231.862 169.613 230.739 172.324 228.494 174.569C226.249 176.814 223.538 177.937 220.363 177.937H67.3608C64.1855 177.937 61.4751 176.814 59.2298 174.569C56.9845 172.324 55.8618 169.613 55.8618 166.438L55.8618 152.436C55.8618 149.261 56.9845 146.55 59.2298 144.305C61.4751 142.06 64.1855 140.937 67.3608 140.937V140.937ZM67.3608 143.937C65.0139 143.937 63.0106 144.767 61.3511 146.426C59.6916 148.086 58.8618 150.089 58.8618 152.436L58.8618 166.438C58.8618 168.785 59.6916 170.788 61.3511 172.448C63.0106 174.107 65.0139 174.937 67.3608 174.937H220.363C222.71 174.937 224.713 174.107 226.373 172.448C228.032 170.788 228.862 168.785 228.862 166.438V152.436C228.862 150.089 228.032 148.086 226.373 146.426C224.713 144.767 222.71 143.937 220.363 143.937H67.3608V143.937Z" fill="#016D71"/>
<rect x="83.3618" y="158.437" width="52" height="3" rx="1.5" fill="#016D71"/>
<circle cx="73.3618" cy="160.437" r="5" fill="#016D71"/>
<path fill-rule="evenodd" clip-rule="evenodd" d="M67.3608 174.937H220.363C223.538 174.937 226.249 176.06 228.494 178.305C230.739 180.55 231.862 183.261 231.862 186.436V200.438C231.862 203.613 230.739 206.324 228.494 208.569C226.249 210.814 223.538 211.937 220.363 211.937H67.3608C64.1855 211.937 61.4751 210.814 59.2298 208.569C56.9845 206.324 55.8618 203.613 55.8618 200.438L55.8618 186.436C55.8618 183.261 56.9845 180.55 59.2298 178.305C61.4751 176.06 64.1855 174.937 67.3608 174.937V174.937ZM67.3608 177.937C65.0139 177.937 63.0106 178.767 61.3511 180.426C59.6916 182.086 58.8618 184.089 58.8618 186.436L58.8618 200.438C58.8618 202.785 59.6916 204.788 61.3511 206.448C63.0106 208.107 65.0139 208.937 67.3608 208.937H220.363C222.71 208.937 224.713 208.107 226.373 206.448C228.032 204.788 228.862 202.785 228.862 200.438V186.436C228.862 184.089 228.032 182.086 226.373 180.426C224.713 178.767 222.71 177.937 220.363 177.937H67.3608V177.937Z" fill="#016D71"/>
<rect x="83.3618" y="192.437" width="52" height="3" rx="1.5" fill="#016D71"/>
<circle cx="73.3618" cy="194.437" r="5" fill="#016D71"/>
<path fill-rule="evenodd" clip-rule="evenodd" d="M67.3608 208.937H220.363C223.538 208.937 226.249 210.06 228.494 212.305C230.739 214.55 231.862 217.261 231.862 220.436V234.438C231.862 237.613 230.739 240.324 228.494 242.569C226.249 244.814 223.538 245.937 220.363 245.937H67.3608C64.1855 245.937 61.4751 244.814 59.2298 242.569C56.9845 240.324 55.8618 237.613 55.8618 234.438L55.8618 220.436C55.8618 217.261 56.9845 214.55 59.2298 212.305C61.4751 210.06 64.1855 208.937 67.3608 208.937V208.937ZM67.3608 211.937C65.0139 211.937 63.0106 212.767 61.3511 214.426C59.6916 216.086 58.8618 218.089 58.8618 220.436L58.8618 234.438C58.8618 236.785 59.6916 238.788 61.3511 240.448C63.0106 242.107 65.0139 242.937 67.3608 242.937H220.363C222.71 242.937 224.713 242.107 226.373 240.448C228.032 238.788 228.862 236.785 228.862 234.438V220.436C228.862 218.089 228.032 216.086 226.373 214.426C224.713 212.767 222.71 211.937 220.363 211.937H67.3608V211.937Z" fill="#016D71"/>
<rect x="83.3618" y="226.437" width="52" height="3" rx="1.5" fill="#016D71"/>
<circle cx="73.3618" cy="228.437" r="5" fill="#016D71"/>
<circle cx="223.362" cy="228.437" r="63" fill="#F8F8F8"/>
<circle cx="233.362" cy="234.437" r="49" fill="#089DA1"/>
<path fill-rule="evenodd" clip-rule="evenodd" d="M223.362 278.937C209.417 278.937 197.514 274.007 187.653 264.146C177.792 254.285 172.862 242.382 172.862 228.437C172.862 214.492 177.792 202.589 187.653 192.728C197.514 182.867 209.417 177.937 223.362 177.937C237.307 177.937 249.21 182.867 259.071 192.728C268.931 202.589 273.862 214.492 273.862 228.437C273.862 242.382 268.931 254.285 259.071 264.146C249.21 274.007 237.307 278.937 223.362 278.937V278.937ZM223.362 275.937C236.479 275.937 247.674 271.3 256.949 262.025C266.224 252.75 270.862 241.554 270.862 228.437C270.862 215.32 266.224 204.124 256.949 194.849C247.674 185.574 236.479 180.937 223.362 180.937C210.245 180.937 199.049 185.574 189.774 194.849C180.499 204.124 175.862 215.32 175.862 228.437C175.862 241.554 180.499 252.75 189.774 262.025C199.049 271.3 210.245 275.937 223.362 275.937V275.937Z" fill="#016D71"/>
<path fill-rule="evenodd" clip-rule="evenodd" d="M217.742 218.362L217.723 218.342L208.226 208.846C208.162 208.782 208.105 208.713 208.053 208.639C208.002 208.564 207.958 208.486 207.92 208.404C207.838 208.222 207.794 208.032 207.788 207.834C207.781 207.635 207.813 207.442 207.883 207.256C207.953 207.07 208.057 206.904 208.193 206.759C208.329 206.614 208.487 206.501 208.669 206.419C211.826 204.99 215.11 204.586 218.52 205.207C221.929 205.828 224.86 207.364 227.31 209.815C229.761 212.266 231.297 215.196 231.919 218.606C232.477 221.669 232.208 224.629 231.112 227.489L247.853 244.23C249.192 245.569 249.862 247.186 249.862 249.079C249.862 250.973 249.192 252.589 247.853 253.928C246.514 255.267 244.898 255.937 243.004 255.937C241.11 255.937 239.494 255.267 238.155 253.928L221.413 237.187C218.554 238.283 215.593 238.552 212.531 237.994C209.121 237.372 206.191 235.836 203.74 233.386C201.289 230.935 199.753 228.005 199.132 224.595C198.511 221.185 198.915 217.901 200.343 214.744C200.381 214.661 200.425 214.583 200.476 214.509C200.528 214.434 200.585 214.365 200.649 214.301C200.942 214.009 201.296 213.862 201.71 213.862C202.124 213.862 202.478 214.009 202.771 214.301L212.282 223.813C212.76 224.282 213.235 224.285 213.707 223.823L217.737 219.793C218.205 219.316 218.207 218.839 217.742 218.362V218.362ZM202.084 224.057C201.711 222.012 201.788 220.022 202.315 218.088L210.182 225.955C212.06 227.796 213.943 227.793 215.828 225.944L219.88 221.893C221.721 220.014 221.721 218.135 219.88 216.257L219.869 216.246L219.844 216.221L212.013 208.39C213.947 207.863 215.937 207.786 217.982 208.159C220.778 208.668 223.18 209.927 225.189 211.936C227.199 213.946 228.458 216.348 228.967 219.144C229.477 221.939 229.146 224.631 227.974 227.22C227.845 227.505 227.809 227.8 227.865 228.108C227.921 228.415 228.059 228.679 228.28 228.899L245.732 246.351C247.551 248.17 247.551 249.989 245.732 251.807C244.979 252.56 244.07 252.937 243.004 252.937C241.939 252.937 241.03 252.56 240.277 251.807L222.824 234.355C222.604 234.134 222.34 233.996 222.033 233.94C221.725 233.884 221.43 233.92 221.145 234.049C218.556 235.22 215.864 235.552 213.069 235.042C210.273 234.533 207.871 233.274 205.862 231.264C203.852 229.255 202.593 226.853 202.084 224.057V224.057Z" fill="#016D71"/>
</svg>
