<svg width="320" height="350" viewBox="0 0 320 350" fill="none" xmlns="http://www.w3.org/2000/svg">
<path fill-rule="evenodd" clip-rule="evenodd" d="M242.211 125.195C272.823 163.054 306.994 198.52 303.693 230.49C300.457 262.396 259.62 290.807 220.531 301.551C181.377 312.229 143.97 305.239 105.98 290.354C68.0558 275.534 29.5487 252.818 19.6469 220.459C9.80978 188.165 28.5779 146.163 56.3419 108.95C84.1058 71.8024 120.865 39.3788 152.707 43.3266C184.612 47.2097 211.6 87.3994 242.211 125.195Z" fill="#F8F8F8"/>
<circle cx="159.997" cy="97.9644" r="3" fill="#1AD6CA"/>
<circle cx="84.9966" cy="263.964" r="5" fill="#1A9ED6"/>
<circle cx="246.997" cy="209.964" r="5" fill="#0ED6B2"/>
<path fill-rule="evenodd" clip-rule="evenodd" d="M66.1922 143.723C66.0847 143.793 65.9773 143.864 65.87 143.935C63.2591 145.664 60.8087 147.595 58.519 149.728C58.3735 149.863 58.2075 149.966 58.0211 150.035C57.8348 150.105 57.6422 150.136 57.4434 150.129C57.248 150.122 57.061 150.079 56.8826 149.999C56.7042 149.919 56.5474 149.808 56.4123 149.666C56.4101 149.664 56.4079 149.662 56.4057 149.659C56.4034 149.657 56.4012 149.655 56.399 149.652C56.1167 149.349 55.983 148.991 55.9977 148.577C56.0124 148.163 56.1713 147.815 56.4744 147.532C58.984 145.195 61.6767 143.088 64.5524 141.211C64.8993 140.985 65.2754 140.914 65.6808 140.999C66.0861 141.084 66.402 141.301 66.6284 141.647C66.7371 141.814 66.8098 141.995 66.8465 142.19C66.8832 142.386 66.8811 142.581 66.8402 142.776C66.7993 142.97 66.7227 143.15 66.6104 143.314C66.4982 143.478 66.3587 143.615 66.1922 143.723V143.723ZM44.815 166.251C44.8178 166.253 44.8207 166.254 44.8236 166.256C44.8265 166.257 44.8295 166.259 44.8324 166.26C45.1998 166.443 45.5784 166.47 45.9684 166.342C46.3584 166.215 46.6472 165.968 46.8349 165.603C48.3227 162.71 50.0496 159.966 52.0157 157.37C52.2635 157.043 52.3607 156.676 52.3073 156.269C52.2539 155.862 52.0652 155.533 51.7413 155.281C51.7388 155.279 51.7362 155.277 51.7336 155.275C51.7311 155.273 51.7285 155.271 51.7259 155.269C51.5673 155.149 51.3918 155.064 51.1994 155.013C51.007 154.963 50.8122 154.951 50.6152 154.979C50.4181 155.006 50.2338 155.07 50.0621 155.17C49.8905 155.271 49.7446 155.4 49.6245 155.559C47.5534 158.292 45.7342 161.183 44.1669 164.231C43.9775 164.6 43.9461 164.981 44.0726 165.375C44.1991 165.77 44.4466 166.062 44.815 166.251V166.251ZM39.3005 184.792C39.3036 184.793 39.3068 184.793 39.31 184.794C39.3132 184.794 39.3164 184.794 39.3196 184.795C39.7272 184.843 40.093 184.742 40.4171 184.49C40.7413 184.238 40.9302 183.909 40.9839 183.502C41.2225 181.695 41.5479 179.898 41.9603 178.112C42.2874 176.695 42.6665 175.297 43.0977 173.916C43.157 173.726 43.1777 173.532 43.1598 173.334C43.1419 173.136 43.0868 172.948 42.9944 172.772C42.9037 172.599 42.7836 172.449 42.6342 172.323C42.4849 172.197 42.3172 172.103 42.1313 172.043C42.1282 172.042 42.1252 172.041 42.1221 172.04C42.1191 172.039 42.116 172.038 42.1129 172.037C41.7176 171.913 41.3364 171.948 40.9695 172.14C40.6027 172.332 40.3575 172.626 40.234 173.022C39.7802 174.475 39.3813 175.947 39.0372 177.437C38.6033 179.317 38.2608 181.207 38.0097 183.109C37.9837 183.306 37.9964 183.501 38.0478 183.693C38.0992 183.885 38.1854 184.06 38.3064 184.218C38.4275 184.376 38.5741 184.504 38.7463 184.604C38.9185 184.703 39.1033 184.766 39.3005 184.792V184.792ZM40.5128 192.361C40.369 192.228 40.2055 192.128 40.0224 192.059C39.8392 191.991 39.6499 191.959 39.4545 191.965C39.4512 191.965 39.448 191.965 39.4447 191.965C39.4415 191.965 39.4382 191.965 39.435 191.966C39.0211 191.983 38.6739 192.143 38.3933 192.448C38.1127 192.753 37.981 193.112 37.9981 193.526C38.1395 196.955 38.5763 200.347 39.3086 203.703C39.3969 204.108 39.6154 204.422 39.964 204.646C40.3126 204.87 40.6892 204.937 41.0939 204.849C41.0971 204.848 41.1002 204.848 41.1034 204.847C41.1066 204.846 41.1097 204.845 41.1129 204.845C41.3034 204.801 41.4785 204.722 41.6384 204.61C41.7982 204.497 41.9309 204.358 42.0365 204.194C42.144 204.026 42.2153 203.845 42.2505 203.649C42.2857 203.453 42.2821 203.258 42.2397 203.064C41.5445 199.878 41.1297 196.657 40.9955 193.402C40.9873 193.204 40.9414 193.014 40.8578 192.834C40.7741 192.653 40.6592 192.496 40.5128 192.361V192.361ZM44.8855 212.902C44.7305 212.522 44.4644 212.252 44.0871 212.09C43.7098 211.928 43.3302 211.923 42.9481 212.073C42.9451 212.074 42.9421 212.075 42.9391 212.076C42.9361 212.077 42.9332 212.079 42.9302 212.08C42.746 212.155 42.5832 212.262 42.4418 212.402C42.3003 212.542 42.1911 212.704 42.1139 212.887C42.0368 213.071 41.9977 213.262 41.9966 213.461C41.9955 213.659 42.0325 213.851 42.1076 214.035C43.4015 217.208 44.9574 220.249 46.7753 223.158C46.9948 223.509 47.3064 223.731 47.71 223.824C48.1136 223.918 48.491 223.854 48.8423 223.635C48.845 223.633 48.8477 223.632 48.8504 223.63C48.8531 223.628 48.8558 223.626 48.8585 223.625C49.023 223.519 49.1615 223.386 49.2741 223.226C49.3867 223.066 49.4649 222.891 49.5089 222.7C49.5536 222.506 49.5596 222.311 49.5268 222.115C49.4939 221.919 49.4248 221.737 49.3194 221.568C47.5925 218.805 46.1145 215.916 44.8855 212.902V212.902ZM63.1447 237.131C63.263 236.973 63.347 236.799 63.3967 236.609C63.4465 236.418 63.4583 236.226 63.4321 236.03C63.4057 235.833 63.3425 235.649 63.2426 235.477C63.1428 235.305 63.0138 235.158 62.8557 235.038C61.5966 234.076 60.326 233.056 59.0438 231.978C57.8507 230.857 56.7077 229.686 55.6148 228.464C55.4822 228.316 55.3262 228.199 55.1469 228.113C54.9677 228.026 54.7787 227.978 54.5801 227.967C54.3849 227.956 54.1948 227.982 54.0098 228.046C53.8248 228.109 53.6587 228.205 53.5113 228.334C53.5088 228.336 53.5064 228.338 53.504 228.34C53.5015 228.342 53.4991 228.344 53.4967 228.347C53.188 228.623 53.0222 228.968 52.9992 229.381C52.9763 229.795 53.1029 230.156 53.3791 230.465C54.5393 231.761 55.7531 233.004 57.0205 234.193C57.0303 234.202 57.0403 234.211 57.0503 234.22C57.0604 234.229 57.0705 234.238 57.0808 234.247C58.4099 235.366 59.728 236.424 61.0352 237.422C61.3644 237.673 61.7343 237.772 62.1448 237.716C62.5553 237.661 62.8863 237.469 63.1377 237.14L63.1448 237.131L63.1447 237.131ZM70.2529 241.172C69.8979 240.965 69.5214 240.913 69.1233 241.015C68.7253 241.117 68.4208 241.345 68.2097 241.698C68.2083 241.7 68.2069 241.702 68.2055 241.705C68.2041 241.707 68.2027 241.709 68.2013 241.712C68.101 241.884 68.0375 242.068 68.0106 242.265C67.9837 242.462 67.9955 242.657 68.0461 242.849C68.0967 243.042 68.1822 243.217 68.3025 243.375C68.4229 243.534 68.569 243.663 68.7408 243.763C71.9108 245.613 75.0143 247.083 78.0515 248.172C78.2387 248.24 78.4317 248.268 78.6304 248.259C78.8291 248.249 79.0183 248.202 79.1982 248.117C79.3781 248.032 79.5349 247.916 79.6686 247.769C79.8023 247.621 79.9027 247.454 79.9699 247.267C79.9713 247.263 79.9727 247.259 79.9741 247.255C79.9755 247.251 79.9769 247.247 79.9782 247.243C80.1098 246.855 80.0867 246.477 79.9089 246.109C79.7311 245.74 79.4496 245.487 79.0644 245.349C76.2007 244.321 73.2635 242.929 70.2529 241.172V241.172ZM87.522 247.19C87.3754 247.315 87.2574 247.463 87.168 247.634C87.0786 247.805 87.0242 247.987 87.0048 248.179C87.0042 248.184 87.0037 248.19 87.0032 248.196C87.0026 248.201 87.0022 248.207 87.0017 248.213C86.9696 248.626 87.0882 248.99 87.3575 249.305C87.6268 249.619 87.9679 249.793 88.3809 249.825C91.9503 250.102 95.4133 249.799 98.7699 248.915C99.1705 248.81 99.4751 248.578 99.6837 248.22C99.8923 247.862 99.9439 247.483 99.8384 247.083C99.8367 247.076 99.8351 247.07 99.8334 247.064C99.8316 247.058 99.8299 247.052 99.8281 247.046C99.7744 246.861 99.6883 246.693 99.57 246.541C99.4517 246.39 99.3094 246.266 99.1433 246.169C98.9715 246.069 98.787 246.005 98.59 245.978C98.3929 245.951 98.1981 245.963 98.0058 246.014C94.9764 246.812 91.8456 247.085 88.6135 246.834C88.4152 246.818 88.2215 246.842 88.0324 246.903C87.8433 246.965 87.6731 247.06 87.522 247.19V247.19Z" fill="#016D71"/>
<rect x="106.997" y="96.9644" width="18" height="4" rx="2" transform="rotate(-130 106.997 96.9644)" fill="#016D71"/>
<rect width="18" height="4" rx="2" transform="matrix(0.156434 -0.987688 -0.987688 -0.156434 130.997 90.9644)" fill="#016D71"/>
<rect width="18" height="4" rx="2" transform="matrix(-0.190809 -0.981627 -0.981627 0.190809 119.997 90.9644)" fill="#016D71"/>
<path fill-rule="evenodd" clip-rule="evenodd" d="M81.1204 117.831C80.2531 112.931 84.0219 108.437 88.9979 108.437H239.917C244.893 108.437 248.662 112.931 247.795 117.831L230.627 214.831C229.951 218.652 226.63 221.437 222.749 221.437H106.166C102.286 221.437 98.9648 218.652 98.2885 214.831L81.1204 117.831Z" fill="#0DB4B8"/>
<path fill-rule="evenodd" clip-rule="evenodd" d="M71.5276 119.437L90.9966 229.437H214.289C216.229 229.437 217.942 228.814 219.429 227.567C220.915 226.321 221.828 224.742 222.166 222.832L239.334 125.83C239.54 124.666 239.491 123.512 239.185 122.369C238.879 121.227 238.347 120.203 237.587 119.296C236.827 118.39 235.911 117.687 234.839 117.187C233.767 116.687 232.64 116.437 231.458 116.437H70.9966L71.5276 119.437V119.437ZM74.9966 119.437L93.9346 226.437H214.711C217.506 226.437 219.147 225.061 219.634 222.309L236.802 125.307C237.073 123.776 236.709 122.415 235.71 121.224C234.711 120.033 233.435 119.437 231.88 119.437H74.9966V119.437Z" fill="#016D71"/>
<path fill-rule="evenodd" clip-rule="evenodd" d="M38.3404 73.6977L58.4671 87.3319C66.0667 92.48 70.6607 99.5745 72.2489 108.615L72.3113 108.97L93.7916 231.242C94.3166 234.231 95.741 236.701 98.0649 238.652C100.389 240.603 103.068 241.578 106.102 241.578H209.499C209.913 241.578 210.267 241.725 210.56 242.018C210.853 242.311 210.999 242.664 210.999 243.078C210.999 243.493 210.853 243.846 210.56 244.139C210.267 244.432 209.913 244.578 209.499 244.578H106.102C102.339 244.578 99.0174 243.369 96.1358 240.949C93.2542 238.53 91.4879 235.467 90.8368 231.761L69.2942 109.134C69.0462 107.723 68.7176 106.364 68.3083 105.057C66.3376 98.7654 62.4963 93.6849 56.7846 89.8157L43.5357 80.8406L36.6579 76.1815C36.3149 75.9491 36.1044 75.6296 36.0261 75.2228C35.9479 74.8161 36.025 74.4412 36.2573 74.0983C36.4896 73.7554 36.8091 73.5448 37.2159 73.4666C37.6226 73.3883 37.9975 73.4654 38.3404 73.6977V73.6977Z" fill="#016D71"/>
<path fill-rule="evenodd" clip-rule="evenodd" d="M126.497 276.437C122.769 276.437 119.587 275.119 116.951 272.483C114.315 269.847 112.997 266.665 112.997 262.937C112.997 259.209 114.315 256.027 116.951 253.391C119.587 250.755 122.769 249.437 126.497 249.437C130.224 249.437 133.406 250.755 136.043 253.391C138.679 256.027 139.997 259.209 139.997 262.937C139.997 266.665 138.679 269.847 136.043 272.483C133.406 275.119 130.224 276.437 126.497 276.437V276.437ZM126.497 273.437C129.396 273.437 131.871 272.412 133.921 270.362C135.971 268.311 136.997 265.837 136.997 262.937C136.997 260.037 135.971 257.563 133.921 255.512C131.871 253.462 129.396 252.437 126.497 252.437C123.597 252.437 121.122 253.462 119.072 255.512C117.022 257.563 115.997 260.038 115.997 262.937C115.997 265.837 117.022 268.311 119.072 270.362C121.122 272.412 123.597 273.437 126.497 273.437V273.437Z" fill="#016D71"/>
<path fill-rule="evenodd" clip-rule="evenodd" d="M185.497 276.437C181.769 276.437 178.587 275.119 175.951 272.483C173.315 269.847 171.997 266.665 171.997 262.937C171.997 259.209 173.315 256.027 175.951 253.391C178.587 250.755 181.769 249.437 185.497 249.437C189.225 249.437 192.406 250.755 195.043 253.391C197.679 256.027 198.997 259.209 198.997 262.937C198.997 266.665 197.679 269.847 195.043 272.483C192.406 275.119 189.224 276.437 185.497 276.437V276.437ZM185.497 273.437C188.396 273.437 190.871 272.412 192.921 270.362C194.971 268.311 195.997 265.837 195.997 262.937C195.997 260.038 194.971 257.563 192.921 255.512C190.871 253.462 188.396 252.437 185.497 252.437C182.597 252.437 180.122 253.462 178.072 255.512C176.022 257.563 174.997 260.037 174.997 262.937C174.997 265.837 176.022 268.311 178.072 270.362C180.122 272.412 182.597 273.437 185.497 273.437V273.437Z" fill="#016D71"/>
<rect x="130.997" y="179.437" width="97" height="3" rx="1.5" fill="#016D71"/>
<rect x="136.997" y="189.437" width="90" height="3" rx="1.5" fill="#016D71"/>
<rect x="144.997" y="200.437" width="80" height="3" rx="1.5" fill="#016D71"/>
<rect x="153.997" y="210.437" width="70" height="3" rx="1.5" fill="#016D71"/>
<circle cx="213.997" cy="117.437" r="40" fill="#F8F8F8"/>
<circle cx="220.997" cy="113.437" r="35" fill="#089DA1"/>
<path fill-rule="evenodd" clip-rule="evenodd" d="M249.997 115.437C249.997 134.767 234.327 150.437 214.997 150.437C195.667 150.437 179.997 134.767 179.997 115.437C179.997 96.107 195.667 80.437 214.997 80.437C234.327 80.437 249.997 96.107 249.997 115.437V115.437ZM237.624 138.064C231.376 144.313 223.834 147.437 214.997 147.437C206.161 147.437 198.618 144.313 192.37 138.064C186.121 131.816 182.997 124.274 182.997 115.437C182.997 106.6 186.121 99.058 192.37 92.8096C198.618 86.5612 206.161 83.437 214.997 83.437C223.834 83.437 231.376 86.5612 237.624 92.8096C243.873 99.058 246.997 106.6 246.997 115.437C246.997 124.274 243.873 131.816 237.624 138.064V138.064Z" fill="#016D71"/>
<rect x="224.749" y="103.062" width="3" height="32" rx="1.5" transform="rotate(45 224.749 103.062)" fill="#016D71"/>
<rect width="3" height="32" rx="1.5" transform="matrix(-0.707107 0.707107 0.707107 0.707107 204.243 103.063)" fill="#016D71"/>
</svg>
