<svg width="553" height="113" viewBox="0 0 553 113" fill="none" xmlns="http://www.w3.org/2000/svg">
<path d="M11 15H6C2.68629 15 0 17.6863 0 21V104.001C0 110 4.5 112.158 10 111.5C27 109.465 44 104.5 61 110C55 104.001 48 104.221 40.6555 103.67C26.0309 102.574 11 101.448 11 90.6796V15Z" fill="#007D81"/>
<path d="M15 5.04484C15 -6.45564 58.5 2.54443 68 23.5449C68 23.5449 68.0001 128.045 68 110.545C68 93.0444 14.9999 107.544 15 88.0448C15.0001 68.5452 15 5.04484 15 5.04484Z" fill="#089DA1"/>
<path d="M129 15H134C137.314 15 140 17.6863 140 21V104.001C140 110 135.5 112.158 130 111.5C113 109.465 96 104.5 79 110C85 104.001 92 104.221 99.3445 103.67C113.969 102.574 129 101.448 129 90.6796V15Z" fill="#089DA1"/>
<path d="M125 5.04484C125 -6.45564 81.5 2.54443 72 23.5449C72 23.5449 71.9999 128.045 72 110.545C72 93.0444 125 107.544 125 88.0448C125 68.5452 125 5.04484 125 5.04484Z" fill="#0DB4B8"/>
<path d="M165.299 43.8408C165.299 41.7656 165.274 39.959 165.226 38.4209C165.177 36.8584 165.104 35.5156 165.006 34.3926C164.908 33.2451 164.786 32.293 164.64 31.5361C164.518 30.7793 164.383 30.1445 164.237 29.6318V29.4854C164.725 29.5098 165.238 29.522 165.775 29.522C166.239 29.5464 166.751 29.5586 167.313 29.5586C167.899 29.5586 168.497 29.5586 169.107 29.5586C169.986 29.5586 171.17 29.4731 172.66 29.3022C174.173 29.1313 176.114 29.0459 178.482 29.0459C180.68 29.0459 182.706 29.3389 184.562 29.9248C186.417 30.4863 188.016 31.3042 189.359 32.3784C190.726 33.4526 191.788 34.7832 192.545 36.3701C193.326 37.9326 193.717 39.7148 193.717 41.7168C193.717 43.4014 193.485 44.915 193.021 46.2578C192.557 47.5762 191.898 48.7358 191.043 49.7368C190.213 50.7134 189.2 51.5435 188.004 52.2271C186.832 52.8862 185.538 53.4111 184.122 53.8018C186.197 54.1191 188.089 54.6562 189.798 55.4131C191.507 56.1455 192.972 57.0732 194.193 58.1963C195.438 59.3193 196.39 60.6377 197.049 62.1514C197.733 63.6406 198.075 65.3008 198.075 67.1318C198.075 72.2832 196.378 76.1528 192.984 78.7407C189.591 81.3042 184.513 82.5859 177.75 82.5859C177.018 82.5859 176.163 82.5493 175.187 82.4761C174.21 82.4272 173.209 82.3662 172.184 82.293C171.183 82.2197 170.194 82.1465 169.217 82.0732C168.241 82.0244 167.386 82 166.654 82H164.237V81.8535C164.383 81.3408 164.518 80.7061 164.64 79.9492C164.786 79.1924 164.908 78.2524 165.006 77.1294C165.104 76.0063 165.177 74.6758 165.226 73.1377C165.274 71.5752 165.299 69.7563 165.299 67.6812V43.8408ZM178.739 56.0356C177.079 56.0356 175.687 56.0967 174.564 56.2188C173.441 56.3408 172.574 56.4629 171.964 56.585V67.6812C171.964 70.5376 172.013 72.8936 172.11 74.749C172.208 76.6045 172.342 78.1182 172.513 79.29C173.441 79.4121 174.369 79.522 175.296 79.6196C176.224 79.7173 176.969 79.7661 177.53 79.7661C182.096 79.7661 185.428 78.7529 187.528 76.7266C189.652 74.6758 190.714 71.5386 190.714 67.3149C190.714 65.6548 190.458 64.1411 189.945 62.7739C189.457 61.3823 188.712 60.186 187.711 59.1851C186.734 58.1841 185.489 57.415 183.976 56.8779C182.486 56.3164 180.741 56.0356 178.739 56.0356ZM171.964 53.2891C172.647 53.3623 173.258 53.4111 173.795 53.4355C174.332 53.4355 174.906 53.4355 175.516 53.4355C177.176 53.4355 178.69 53.2036 180.057 52.7397C181.424 52.2515 182.584 51.5312 183.536 50.5791C184.513 49.627 185.27 48.4429 185.807 47.0269C186.344 45.5864 186.612 43.9141 186.612 42.0098C186.612 40.4229 186.417 38.9824 186.026 37.6885C185.636 36.3945 185.05 35.2959 184.269 34.3926C183.512 33.4648 182.572 32.7568 181.449 32.2686C180.326 31.7803 179.044 31.5361 177.604 31.5361C176.676 31.5361 175.858 31.5728 175.15 31.646C174.466 31.7192 173.88 31.8047 173.392 31.9023C172.831 32 172.354 32.1221 171.964 32.2686V53.2891ZM204.574 62.188C204.574 59.3071 205.111 56.6338 206.186 54.168C207.284 51.7021 208.773 49.5659 210.653 47.7593C212.533 45.9282 214.755 44.5 217.318 43.4746C219.882 42.4492 222.628 41.9365 225.558 41.9365C228.439 41.9365 231.149 42.4248 233.688 43.4014C236.251 44.3535 238.473 45.7207 240.353 47.5029C242.257 49.2852 243.759 51.4458 244.857 53.9849C245.956 56.5239 246.505 59.3682 246.505 62.5176C246.505 65.1299 246.042 67.6567 245.114 70.0981C244.186 72.5151 242.831 74.6636 241.049 76.5435C239.267 78.3989 237.069 79.8882 234.457 81.0112C231.845 82.1099 228.854 82.6592 225.485 82.6592C222.628 82.6592 219.931 82.1831 217.392 81.231C214.853 80.2788 212.631 78.9238 210.727 77.166C208.822 75.3838 207.321 73.2354 206.222 70.7207C205.124 68.1816 204.574 65.3374 204.574 62.188ZM226.4 80.0591C228.256 80.0591 229.965 79.6929 231.527 78.9604C233.09 78.228 234.433 77.1782 235.556 75.811C236.703 74.4438 237.582 72.7837 238.192 70.8306C238.827 68.853 239.145 66.6313 239.145 64.1655C239.145 61.3579 238.839 58.7578 238.229 56.3652C237.643 53.9727 236.74 51.9097 235.519 50.1763C234.323 48.4185 232.821 47.0513 231.015 46.0747C229.208 45.0737 227.096 44.5732 224.679 44.5732C222.824 44.5732 221.115 44.9272 219.552 45.6353C217.99 46.3433 216.635 47.3687 215.487 48.7114C214.364 50.0542 213.485 51.7021 212.851 53.6553C212.216 55.6084 211.898 57.8301 211.898 60.3203C211.898 63.1035 212.204 65.7036 212.814 68.1206C213.449 70.5132 214.364 72.6006 215.561 74.3828C216.781 76.1406 218.295 77.5322 220.102 78.5576C221.908 79.5586 224.008 80.0591 226.4 80.0591ZM252.639 62.188C252.639 59.3071 253.176 56.6338 254.25 54.168C255.349 51.7021 256.838 49.5659 258.718 47.7593C260.598 45.9282 262.819 44.5 265.383 43.4746C267.946 42.4492 270.693 41.9365 273.623 41.9365C276.503 41.9365 279.213 42.4248 281.752 43.4014C284.316 44.3535 286.538 45.7207 288.417 47.5029C290.322 49.2852 291.823 51.4458 292.922 53.9849C294.021 56.5239 294.57 59.3682 294.57 62.5176C294.57 65.1299 294.106 67.6567 293.178 70.0981C292.25 72.5151 290.896 74.6636 289.113 76.5435C287.331 78.3989 285.134 79.8882 282.521 81.0112C279.909 82.1099 276.918 82.6592 273.549 82.6592C270.693 82.6592 267.995 82.1831 265.456 81.231C262.917 80.2788 260.695 78.9238 258.791 77.166C256.887 75.3838 255.385 73.2354 254.287 70.7207C253.188 68.1816 252.639 65.3374 252.639 62.188ZM274.465 80.0591C276.32 80.0591 278.029 79.6929 279.592 78.9604C281.154 78.228 282.497 77.1782 283.62 75.811C284.768 74.4438 285.646 72.7837 286.257 70.8306C286.892 68.853 287.209 66.6313 287.209 64.1655C287.209 61.3579 286.904 58.7578 286.293 56.3652C285.708 53.9727 284.804 51.9097 283.583 50.1763C282.387 48.4185 280.886 47.0513 279.079 46.0747C277.272 45.0737 275.161 44.5732 272.744 44.5732C270.888 44.5732 269.179 44.9272 267.617 45.6353C266.054 46.3433 264.699 47.3687 263.552 48.7114C262.429 50.0542 261.55 51.7021 260.915 53.6553C260.28 55.6084 259.963 57.8301 259.963 60.3203C259.963 63.1035 260.268 65.7036 260.878 68.1206C261.513 70.5132 262.429 72.6006 263.625 74.3828C264.846 76.1406 266.359 77.5322 268.166 78.5576C269.973 79.5586 272.072 80.0591 274.465 80.0591ZM303.853 57.6836C303.853 55.4863 303.828 53.582 303.779 51.9707C303.73 50.335 303.657 48.9312 303.56 47.7593C303.486 46.563 303.376 45.562 303.23 44.7563C303.108 43.9507 302.961 43.2915 302.791 42.7788V42.6323H311.25V42.7788C311.079 43.2915 310.933 43.9507 310.811 44.7563C310.688 45.562 310.579 46.563 310.481 47.7593C310.408 48.9312 310.347 50.335 310.298 51.9707C310.249 53.582 310.225 55.4863 310.225 57.6836V60.1006L326.96 46.3677C327.888 45.6108 328.584 44.9395 329.048 44.3535C329.536 43.7676 329.78 43.1938 329.78 42.6323H338.496V42.7788C337.397 43.0474 336.262 43.5356 335.09 44.2437C333.943 44.9517 332.722 45.8428 331.428 46.917L316.816 58.8921L332.051 74.7124C334.077 76.8364 335.786 78.46 337.178 79.583C338.594 80.6816 339.68 81.4385 340.437 81.8535V82H330.476C330.208 81.5117 329.634 80.7915 328.755 79.8394C327.876 78.8872 326.716 77.6543 325.276 76.1406L310.225 60.4668V66.9121C310.225 69.1094 310.249 71.0259 310.298 72.6616C310.347 74.2974 310.408 75.7134 310.481 76.9097C310.579 78.0815 310.688 79.0703 310.811 79.876C310.933 80.6816 311.079 81.3408 311.25 81.8535V82H302.791V81.8535C302.961 81.3408 303.108 80.6816 303.23 79.876C303.376 79.0703 303.486 78.0815 303.56 76.9097C303.657 75.7134 303.73 74.2974 303.779 72.6616C303.828 71.0259 303.853 69.1094 303.853 66.9121V57.6836ZM381.617 56.8779C380.64 56.8535 379.419 56.8413 377.955 56.8413C376.49 56.8169 374.891 56.7925 373.157 56.7681C371.448 56.7437 369.654 56.7314 367.774 56.7314C365.918 56.707 364.1 56.6948 362.317 56.6948C360.535 56.6704 358.838 56.6704 357.227 56.6948C355.616 56.7192 354.212 56.7559 353.016 56.8047V67.6812C353.016 69.7563 353.04 71.5752 353.089 73.1377C353.162 74.6758 353.235 76.0063 353.309 77.1294C353.406 78.2524 353.516 79.1924 353.638 79.9492C353.785 80.7061 353.931 81.3408 354.078 81.8535V82H345.289V81.8535C345.435 81.3408 345.569 80.7061 345.691 79.9492C345.838 79.1924 345.96 78.2524 346.058 77.1294C346.155 76.0063 346.229 74.6758 346.277 73.1377C346.326 71.5752 346.351 69.7563 346.351 67.6812V43.8408C346.351 41.7656 346.326 39.959 346.277 38.4209C346.229 36.8584 346.155 35.5156 346.058 34.3926C345.96 33.2451 345.838 32.293 345.691 31.5361C345.569 30.7793 345.435 30.1445 345.289 29.6318V29.4854H354.078V29.6318C353.931 30.1445 353.785 30.7793 353.638 31.5361C353.516 32.293 353.406 33.2451 353.309 34.3926C353.235 35.5156 353.162 36.8584 353.089 38.4209C353.04 39.959 353.016 41.7656 353.016 43.8408V53.2158C354.285 53.2646 355.726 53.3013 357.337 53.3257C358.948 53.3257 360.633 53.3257 362.391 53.3257C364.148 53.3013 365.931 53.2769 367.737 53.2524C369.568 53.228 371.326 53.2036 373.011 53.1792C374.72 53.1304 376.307 53.0815 377.771 53.0327C379.261 52.9839 380.542 52.9351 381.617 52.8862V43.8408C381.617 41.7656 381.58 39.959 381.507 38.4209C381.458 36.8584 381.385 35.5156 381.287 34.3926C381.214 33.2451 381.104 32.293 380.958 31.5361C380.835 30.7793 380.701 30.1445 380.555 29.6318V29.4854H389.344V29.6318C389.197 30.1445 389.051 30.7793 388.904 31.5361C388.782 32.293 388.672 33.2451 388.575 34.3926C388.477 35.5156 388.404 36.8584 388.355 38.4209C388.306 39.959 388.282 41.7656 388.282 43.8408V67.6812C388.282 69.7563 388.306 71.5752 388.355 73.1377C388.404 74.6758 388.477 76.0063 388.575 77.1294C388.672 78.2524 388.782 79.1924 388.904 79.9492C389.051 80.7061 389.197 81.3408 389.344 81.8535V82H380.555V81.8535C380.701 81.3408 380.835 80.7061 380.958 79.9492C381.104 79.1924 381.214 78.2524 381.287 77.1294C381.385 76.0063 381.458 74.6758 381.507 73.1377C381.58 71.5752 381.617 69.7563 381.617 67.6812V56.8779ZM424.078 69.6221C423.419 69.6221 422.589 69.6221 421.588 69.6221C420.611 69.6221 419.537 69.6221 418.365 69.6221C417.193 69.6221 415.985 69.6221 414.74 69.6221C413.495 69.6221 412.311 69.6343 411.188 69.6587C410.064 69.6587 409.039 69.6709 408.111 69.6953C407.184 69.6953 406.463 69.6953 405.951 69.6953L404.596 72.5518C404.01 73.7236 403.509 74.749 403.094 75.6279C402.679 76.4824 402.337 77.2393 402.069 77.8984C401.8 78.5576 401.605 79.1313 401.483 79.6196C401.361 80.0835 401.3 80.5229 401.3 80.938C401.3 81.2065 401.312 81.4141 401.336 81.5605C401.361 81.6826 401.397 81.7803 401.446 81.8535V82H395.001V81.8535C395.172 81.6826 395.44 81.3164 395.807 80.7549C396.173 80.1689 396.588 79.4609 397.052 78.6309C397.54 77.8008 398.053 76.8608 398.59 75.811C399.151 74.7612 399.701 73.6748 400.238 72.5518L415.179 41.7168H417.926L432.574 72.5518C433.136 73.7236 433.697 74.8467 434.259 75.9209C434.845 76.9951 435.382 77.9595 435.87 78.814C436.358 79.644 436.786 80.3398 437.152 80.9014C437.518 81.4385 437.762 81.7559 437.884 81.8535V82H428.509C428.558 81.8047 428.583 81.6338 428.583 81.4873C428.583 81.3164 428.583 81.1333 428.583 80.938C428.583 80.4009 428.46 79.7539 428.216 78.9971C427.997 78.2402 427.716 77.4712 427.374 76.6899C427.057 75.8843 426.715 75.1152 426.349 74.3828C426.007 73.6504 425.726 73.04 425.506 72.5518L424.078 69.6221ZM407.379 66.7656H409.613C410.638 66.7656 411.725 66.7656 412.872 66.7656C414.044 66.7412 415.216 66.729 416.388 66.729C417.56 66.729 418.695 66.729 419.793 66.729C420.892 66.7046 421.881 66.6924 422.76 66.6924L415.179 50.5059L407.379 66.7656ZM445.702 42.6323V42.7788C445.653 42.9009 445.617 43.0962 445.592 43.3647C445.568 43.6333 445.556 43.8652 445.556 44.0605C445.556 44.8418 445.666 45.7207 445.885 46.6973C446.129 47.6494 446.569 48.8457 447.204 50.2861L456.945 72.332L466.759 50.5791C466.979 50.1152 467.199 49.627 467.418 49.1143C467.638 48.5771 467.846 48.0278 468.041 47.4663C468.236 46.9048 468.395 46.3433 468.517 45.7817C468.639 45.1958 468.7 44.6221 468.7 44.0605C468.7 43.7432 468.676 43.4746 468.627 43.2549C468.578 43.0107 468.529 42.8521 468.48 42.7788V42.6323H475.402V42.7788C474.938 43.2671 474.34 44.1338 473.607 45.3789C472.875 46.5996 472.118 48.1621 471.337 50.0664L456.725 82.5127H454.381L440.905 51.9341C440.417 50.811 439.892 49.7368 439.33 48.7114C438.793 47.6616 438.28 46.7339 437.792 45.9282C437.328 45.0981 436.913 44.4146 436.547 43.8774C436.181 43.3159 435.924 42.9497 435.778 42.7788V42.6323H445.702ZM479.887 42.6323C482.28 42.6323 484.733 42.6323 487.248 42.6323C489.763 42.6079 492.094 42.5835 494.243 42.5591C496.391 42.5103 498.234 42.4614 499.772 42.4126C501.335 42.3638 502.36 42.2905 502.849 42.1929L501.42 46.1479C500.761 45.9771 500.017 45.8184 499.187 45.6719C498.454 45.5498 497.563 45.4399 496.513 45.3423C495.488 45.2202 494.292 45.1592 492.924 45.1592C492.436 45.1592 491.875 45.1836 491.24 45.2324C490.605 45.2568 489.995 45.2935 489.409 45.3423C488.725 45.3911 488.029 45.4399 487.321 45.4888V59.9541C489.299 59.9297 491.081 59.8809 492.668 59.8076C494.255 59.7344 495.61 59.6367 496.733 59.5146C498.051 59.417 499.211 59.2827 500.212 59.1118L499.333 63.4697C497.99 63.2988 496.635 63.1523 495.268 63.0303C494.096 62.9082 492.802 62.8105 491.386 62.7373C489.97 62.6396 488.615 62.5908 487.321 62.5908V79.2168C489.592 79.2168 491.679 79.1313 493.583 78.9604C495.488 78.7651 497.148 78.5576 498.564 78.3379C500.224 78.0693 501.726 77.7642 503.068 77.4224L502.226 82.2197C501.86 82.1953 501.262 82.1587 500.432 82.1099C499.626 82.0854 498.771 82.061 497.868 82.0366C496.989 82.0366 496.159 82.0244 495.378 82C494.597 82 494.06 82 493.767 82H479.887V81.8535C480.058 81.3408 480.205 80.6816 480.327 79.876C480.473 79.0703 480.583 78.0815 480.656 76.9097C480.754 75.7134 480.827 74.2974 480.876 72.6616C480.925 71.0259 480.949 69.1094 480.949 66.9121V57.6836C480.949 55.4863 480.925 53.582 480.876 51.9707C480.827 50.335 480.754 48.9312 480.656 47.7593C480.583 46.563 480.473 45.562 480.327 44.7563C480.205 43.9507 480.058 43.2915 479.887 42.7788V42.6323ZM547.178 82.5127H545.75L516.636 53.875V66.9121C516.636 69.1094 516.648 71.0259 516.672 72.6616C516.697 74.2974 516.733 75.7134 516.782 76.9097C516.855 78.0815 516.941 79.0703 517.039 79.876C517.161 80.6816 517.307 81.3408 517.478 81.8535V82H511.985V81.8535C512.156 81.3408 512.302 80.6816 512.424 79.876C512.546 79.0703 512.644 78.0815 512.717 76.9097C512.791 75.7134 512.839 74.2974 512.864 72.6616C512.888 71.0259 512.9 69.1094 512.9 66.9121V57.6836C512.9 55.4863 512.888 53.582 512.864 51.9707C512.839 50.335 512.791 48.9312 512.717 47.7593C512.644 46.563 512.546 45.562 512.424 44.7563C512.302 43.9507 512.156 43.2915 511.985 42.7788V42.6323H514.255L543.406 71.4165V57.6836C543.406 55.4863 543.394 53.582 543.369 51.9707C543.345 50.335 543.296 48.9312 543.223 47.7593C543.174 46.563 543.101 45.562 543.003 44.7563C542.905 43.9507 542.771 43.2915 542.6 42.7788V42.6323H548.057V42.7788C547.886 43.2915 547.739 43.9507 547.617 44.7563C547.52 45.562 547.434 46.563 547.361 47.7593C547.288 48.9312 547.239 50.335 547.214 51.9707C547.19 53.582 547.178 55.4863 547.178 57.6836V82.5127Z" fill="#007D81"/>
</svg>
