<svg width="590" height="113" viewBox="0 0 590 113" fill="none" xmlns="http://www.w3.org/2000/svg">
<path d="M11 15H6C2.68629 15 0 17.6863 0 21V104.001C0 110 4.5 112.158 10 111.5C27 109.465 44 104.5 61 110C55 104.001 48 104.221 40.6555 103.67C26.0309 102.574 11 101.448 11 90.6796V15Z" fill="#007D81"/>
<path d="M15 5.04484C15 -6.45564 58.5 2.54443 68 23.5449C68 23.5449 68.0001 128.045 68 110.545C68 93.0444 14.9999 107.544 15 88.0448C15.0001 68.5452 15 5.04484 15 5.04484Z" fill="#089DA1"/>
<path d="M129 15H134C137.314 15 140 17.6863 140 21V104.001C140 110 135.5 112.158 130 111.5C113 109.465 96 104.5 79 110C85 104.001 92 104.221 99.3445 103.67C113.969 102.574 129 101.448 129 90.6796V15Z" fill="#089DA1"/>
<path d="M125 5.04484C125 -6.45564 81.5 2.54443 72 23.5449C72 23.5449 71.9999 128.045 72 110.545C72 93.0444 125 107.544 125 88.0448C125 68.5452 125 5.04484 125 5.04484Z" fill="#0DB4B8"/>
<path d="M175.719 45.2969C175.719 43.0833 175.693 41.1562 175.641 39.5156C175.589 37.849 175.51 36.4167 175.406 35.2188C175.302 33.9948 175.172 32.9792 175.016 32.1719C174.885 31.3646 174.742 30.6875 174.586 30.1406V29.9844C175.107 30.0104 175.654 30.0234 176.227 30.0234C176.721 30.0495 177.268 30.0625 177.867 30.0625C178.492 30.0625 179.13 30.0625 179.781 30.0625C180.719 30.0625 181.982 29.9714 183.57 29.7891C185.185 29.6068 187.255 29.5156 189.781 29.5156C192.125 29.5156 194.286 29.8281 196.266 30.4531C198.245 31.0521 199.951 31.9245 201.383 33.0703C202.841 34.2161 203.974 35.6354 204.781 37.3281C205.615 38.9948 206.031 40.8958 206.031 43.0312C206.031 44.8281 205.784 46.4427 205.289 47.875C204.794 49.2812 204.091 50.5182 203.18 51.5859C202.294 52.6276 201.214 53.513 199.938 54.2422C198.688 54.9453 197.307 55.5052 195.797 55.9219C198.01 56.2604 200.029 56.8333 201.852 57.6406C203.674 58.4219 205.237 59.4115 206.539 60.6094C207.867 61.8073 208.883 63.2135 209.586 64.8281C210.315 66.4167 210.68 68.1875 210.68 70.1406C210.68 75.6354 208.87 79.763 205.25 82.5234C201.63 85.2578 196.214 86.625 189 86.625C188.219 86.625 187.307 86.5859 186.266 86.5078C185.224 86.4557 184.156 86.3906 183.062 86.3125C181.995 86.2344 180.94 86.1562 179.898 86.0781C178.857 86.026 177.945 86 177.164 86H174.586V85.8438C174.742 85.2969 174.885 84.6198 175.016 83.8125C175.172 83.0052 175.302 82.0026 175.406 80.8047C175.51 79.6068 175.589 78.1875 175.641 76.5469C175.693 74.8802 175.719 72.9401 175.719 70.7266V45.2969ZM190.055 58.3047C188.284 58.3047 186.799 58.3698 185.602 58.5C184.404 58.6302 183.479 58.7604 182.828 58.8906V70.7266C182.828 73.7734 182.88 76.2865 182.984 78.2656C183.089 80.2448 183.232 81.8594 183.414 83.1094C184.404 83.2396 185.393 83.3568 186.383 83.4609C187.372 83.5651 188.167 83.6172 188.766 83.6172C193.635 83.6172 197.19 82.5365 199.43 80.375C201.695 78.1875 202.828 74.8411 202.828 70.3359C202.828 68.5651 202.555 66.9505 202.008 65.4922C201.487 64.0078 200.693 62.7318 199.625 61.6641C198.583 60.5964 197.255 59.776 195.641 59.2031C194.052 58.6042 192.19 58.3047 190.055 58.3047ZM182.828 55.375C183.557 55.4531 184.208 55.5052 184.781 55.5312C185.354 55.5312 185.966 55.5312 186.617 55.5312C188.388 55.5312 190.003 55.2839 191.461 54.7891C192.919 54.2682 194.156 53.5 195.172 52.4844C196.214 51.4688 197.021 50.2057 197.594 48.6953C198.167 47.1589 198.453 45.375 198.453 43.3438C198.453 41.651 198.245 40.1146 197.828 38.7344C197.411 37.3542 196.786 36.1823 195.953 35.2188C195.146 34.2292 194.143 33.474 192.945 32.9531C191.747 32.4323 190.38 32.1719 188.844 32.1719C187.854 32.1719 186.982 32.2109 186.227 32.2891C185.497 32.3672 184.872 32.4583 184.352 32.5625C183.753 32.6667 183.245 32.7969 182.828 32.9531V55.375ZM217.612 64.8672C217.612 61.7943 218.185 58.9427 219.331 56.3125C220.503 53.6823 222.092 51.4036 224.097 49.4766C226.102 47.5234 228.472 46 231.206 44.9062C233.941 43.8125 236.87 43.2656 239.995 43.2656C243.068 43.2656 245.959 43.7865 248.667 44.8281C251.402 45.8438 253.771 47.3021 255.777 49.2031C257.808 51.1042 259.409 53.4089 260.581 56.1172C261.753 58.8255 262.339 61.8594 262.339 65.2188C262.339 68.0052 261.844 70.7005 260.855 73.3047C259.865 75.8828 258.42 78.1745 256.519 80.1797C254.618 82.1589 252.274 83.7474 249.487 84.9453C246.701 86.1172 243.511 86.7031 239.917 86.7031C236.87 86.7031 233.993 86.1953 231.284 85.1797C228.576 84.1641 226.206 82.7188 224.175 80.8438C222.144 78.9427 220.542 76.651 219.37 73.9688C218.198 71.2604 217.612 68.2266 217.612 64.8672ZM240.894 83.9297C242.873 83.9297 244.696 83.5391 246.362 82.7578C248.029 81.9766 249.461 80.8568 250.659 79.3984C251.883 77.9401 252.821 76.1693 253.472 74.0859C254.149 71.9766 254.487 69.6068 254.487 66.9766C254.487 63.9818 254.162 61.2083 253.511 58.6562C252.886 56.1042 251.922 53.9036 250.62 52.0547C249.344 50.1797 247.743 48.7214 245.816 47.6797C243.889 46.612 241.636 46.0781 239.058 46.0781C237.079 46.0781 235.256 46.4557 233.589 47.2109C231.922 47.9661 230.477 49.0599 229.253 50.4922C228.055 51.9245 227.118 53.6823 226.441 55.7656C225.764 57.849 225.425 60.2188 225.425 62.875C225.425 65.8438 225.751 68.6172 226.402 71.1953C227.079 73.7474 228.055 75.974 229.331 77.875C230.633 79.75 232.248 81.2344 234.175 82.3281C236.102 83.3958 238.342 83.9297 240.894 83.9297ZM268.881 64.8672C268.881 61.7943 269.454 58.9427 270.6 56.3125C271.772 53.6823 273.36 51.4036 275.366 49.4766C277.371 47.5234 279.741 46 282.475 44.9062C285.209 43.8125 288.139 43.2656 291.264 43.2656C294.337 43.2656 297.228 43.7865 299.936 44.8281C302.67 45.8438 305.04 47.3021 307.045 49.2031C309.077 51.1042 310.678 53.4089 311.85 56.1172C313.022 58.8255 313.608 61.8594 313.608 65.2188C313.608 68.0052 313.113 70.7005 312.123 73.3047C311.134 75.8828 309.689 78.1745 307.787 80.1797C305.886 82.1589 303.543 83.7474 300.756 84.9453C297.97 86.1172 294.78 86.7031 291.186 86.7031C288.139 86.7031 285.261 86.1953 282.553 85.1797C279.845 84.1641 277.475 82.7188 275.444 80.8438C273.412 78.9427 271.811 76.651 270.639 73.9688C269.467 71.2604 268.881 68.2266 268.881 64.8672ZM292.162 83.9297C294.142 83.9297 295.965 83.5391 297.631 82.7578C299.298 81.9766 300.73 80.8568 301.928 79.3984C303.152 77.9401 304.09 76.1693 304.741 74.0859C305.418 71.9766 305.756 69.6068 305.756 66.9766C305.756 63.9818 305.431 61.2083 304.78 58.6562C304.155 56.1042 303.191 53.9036 301.889 52.0547C300.613 50.1797 299.011 48.7214 297.084 47.6797C295.157 46.612 292.905 46.0781 290.327 46.0781C288.347 46.0781 286.524 46.4557 284.858 47.2109C283.191 47.9661 281.746 49.0599 280.522 50.4922C279.324 51.9245 278.386 53.6823 277.709 55.7656C277.032 57.849 276.694 60.2188 276.694 62.875C276.694 65.8438 277.019 68.6172 277.67 71.1953C278.347 73.7474 279.324 75.974 280.6 77.875C281.902 79.75 283.517 81.2344 285.444 82.3281C287.371 83.3958 289.61 83.9297 292.162 83.9297ZM323.509 60.0625C323.509 57.7188 323.483 55.6875 323.431 53.9688C323.379 52.224 323.301 50.7266 323.197 49.4766C323.119 48.2005 323.002 47.1328 322.845 46.2734C322.715 45.4141 322.559 44.7109 322.377 44.1641V44.0078H331.4V44.1641C331.218 44.7109 331.061 45.4141 330.931 46.2734C330.801 47.1328 330.684 48.2005 330.58 49.4766C330.502 50.7266 330.436 52.224 330.384 53.9688C330.332 55.6875 330.306 57.7188 330.306 60.0625V62.6406L348.158 47.9922C349.147 47.1849 349.89 46.4688 350.384 45.8438C350.905 45.2188 351.166 44.6068 351.166 44.0078H360.462V44.1641C359.291 44.4505 358.08 44.9714 356.83 45.7266C355.606 46.4818 354.304 47.4323 352.923 48.5781L337.337 61.3516L353.587 78.2266C355.749 80.4922 357.572 82.224 359.056 83.4219C360.567 84.5938 361.726 85.401 362.533 85.8438V86H351.908C351.621 85.4792 351.009 84.7109 350.072 83.6953C349.134 82.6797 347.897 81.3646 346.361 79.75L330.306 63.0312V69.9062C330.306 72.25 330.332 74.2943 330.384 76.0391C330.436 77.7839 330.502 79.2943 330.58 80.5703C330.684 81.8203 330.801 82.875 330.931 83.7344C331.061 84.5938 331.218 85.2969 331.4 85.8438V86H322.377V85.8438C322.559 85.2969 322.715 84.5938 322.845 83.7344C323.002 82.875 323.119 81.8203 323.197 80.5703C323.301 79.2943 323.379 77.7839 323.431 76.0391C323.483 74.2943 323.509 72.25 323.509 69.9062V60.0625ZM406.458 59.2031C405.416 59.1771 404.114 59.1641 402.552 59.1641C400.989 59.138 399.283 59.112 397.434 59.0859C395.611 59.0599 393.697 59.0469 391.692 59.0469C389.713 59.0208 387.773 59.0078 385.872 59.0078C383.971 58.9818 382.161 58.9818 380.442 59.0078C378.723 59.0339 377.226 59.0729 375.95 59.125V70.7266C375.95 72.9401 375.976 74.8802 376.028 76.5469C376.106 78.1875 376.184 79.6068 376.262 80.8047C376.367 82.0026 376.484 83.0052 376.614 83.8125C376.77 84.6198 376.927 85.2969 377.083 85.8438V86H367.708V85.8438C367.864 85.2969 368.007 84.6198 368.137 83.8125C368.294 83.0052 368.424 82.0026 368.528 80.8047C368.632 79.6068 368.71 78.1875 368.762 76.5469C368.815 74.8802 368.841 72.9401 368.841 70.7266V45.2969C368.841 43.0833 368.815 41.1562 368.762 39.5156C368.71 37.849 368.632 36.4167 368.528 35.2188C368.424 33.9948 368.294 32.9792 368.137 32.1719C368.007 31.3646 367.864 30.6875 367.708 30.1406V29.9844H377.083V30.1406C376.927 30.6875 376.77 31.3646 376.614 32.1719C376.484 32.9792 376.367 33.9948 376.262 35.2188C376.184 36.4167 376.106 37.849 376.028 39.5156C375.976 41.1562 375.95 43.0833 375.95 45.2969V55.2969C377.304 55.349 378.841 55.388 380.559 55.4141C382.278 55.4141 384.075 55.4141 385.95 55.4141C387.825 55.388 389.726 55.362 391.653 55.3359C393.606 55.3099 395.481 55.2839 397.278 55.2578C399.101 55.2057 400.794 55.1536 402.356 55.1016C403.945 55.0495 405.312 54.9974 406.458 54.9453V45.2969C406.458 43.0833 406.419 41.1562 406.341 39.5156C406.289 37.849 406.21 36.4167 406.106 35.2188C406.028 33.9948 405.911 32.9792 405.755 32.1719C405.624 31.3646 405.481 30.6875 405.325 30.1406V29.9844H414.7V30.1406C414.544 30.6875 414.387 31.3646 414.231 32.1719C414.101 32.9792 413.984 33.9948 413.88 35.2188C413.776 36.4167 413.697 37.849 413.645 39.5156C413.593 41.1562 413.567 43.0833 413.567 45.2969V70.7266C413.567 72.9401 413.593 74.8802 413.645 76.5469C413.697 78.1875 413.776 79.6068 413.88 80.8047C413.984 82.0026 414.101 83.0052 414.231 83.8125C414.387 84.6198 414.544 85.2969 414.7 85.8438V86H405.325V85.8438C405.481 85.2969 405.624 84.6198 405.755 83.8125C405.911 83.0052 406.028 82.0026 406.106 80.8047C406.21 79.6068 406.289 78.1875 406.341 76.5469C406.419 74.8802 406.458 72.9401 406.458 70.7266V59.2031ZM451.75 72.7969C451.047 72.7969 450.161 72.7969 449.094 72.7969C448.052 72.7969 446.906 72.7969 445.656 72.7969C444.406 72.7969 443.117 72.7969 441.789 72.7969C440.461 72.7969 439.198 72.8099 438 72.8359C436.802 72.8359 435.708 72.849 434.719 72.875C433.729 72.875 432.961 72.875 432.414 72.875L430.969 75.9219C430.344 77.1719 429.81 78.2656 429.367 79.2031C428.924 80.1146 428.56 80.9219 428.273 81.625C427.987 82.3281 427.779 82.9401 427.648 83.4609C427.518 83.9557 427.453 84.4245 427.453 84.8672C427.453 85.1536 427.466 85.375 427.492 85.5312C427.518 85.6615 427.557 85.7656 427.609 85.8438V86H420.734V85.8438C420.917 85.6615 421.203 85.2708 421.594 84.6719C421.984 84.0469 422.427 83.2917 422.922 82.4062C423.443 81.5208 423.99 80.5182 424.562 79.3984C425.161 78.2786 425.747 77.1198 426.32 75.9219L442.258 43.0312H445.188L460.812 75.9219C461.411 77.1719 462.01 78.3698 462.609 79.5156C463.234 80.6615 463.807 81.6901 464.328 82.6016C464.849 83.487 465.305 84.2292 465.695 84.8281C466.086 85.401 466.346 85.7396 466.477 85.8438V86H456.477C456.529 85.7917 456.555 85.6094 456.555 85.4531C456.555 85.2708 456.555 85.0755 456.555 84.8672C456.555 84.2943 456.424 83.6042 456.164 82.7969C455.93 81.9896 455.63 81.1693 455.266 80.3359C454.927 79.4766 454.562 78.6562 454.172 77.875C453.807 77.0938 453.508 76.4427 453.273 75.9219L451.75 72.7969ZM433.938 69.75H436.32C437.414 69.75 438.573 69.75 439.797 69.75C441.047 69.724 442.297 69.7109 443.547 69.7109C444.797 69.7109 446.008 69.7109 447.18 69.7109C448.352 69.6849 449.406 69.6719 450.344 69.6719L442.258 52.4062L433.938 69.75ZM474.816 44.0078V44.1641C474.764 44.2943 474.724 44.5026 474.698 44.7891C474.672 45.0755 474.659 45.3229 474.659 45.5312C474.659 46.3646 474.777 47.3021 475.011 48.3438C475.271 49.3594 475.74 50.6354 476.417 52.1719L486.808 75.6875L497.277 52.4844C497.511 51.9896 497.745 51.4688 497.98 50.9219C498.214 50.349 498.435 49.763 498.644 49.1641C498.852 48.5651 499.021 47.9661 499.152 47.3672C499.282 46.7422 499.347 46.1302 499.347 45.5312C499.347 45.1927 499.321 44.9062 499.269 44.6719C499.217 44.4115 499.165 44.2422 499.112 44.1641V44.0078H506.495V44.1641C506.001 44.6849 505.362 45.6094 504.581 46.9375C503.8 48.2396 502.993 49.9062 502.159 51.9375L486.573 86.5469H484.073L469.698 53.9297C469.178 52.7318 468.618 51.5859 468.019 50.4922C467.446 49.3724 466.899 48.3828 466.378 47.5234C465.883 46.638 465.441 45.9089 465.05 45.3359C464.659 44.737 464.386 44.3464 464.23 44.1641V44.0078H474.816ZM511.28 44.0078C513.832 44.0078 516.449 44.0078 519.131 44.0078C521.814 43.9818 524.301 43.9557 526.592 43.9297C528.884 43.8776 530.85 43.8255 532.491 43.7734C534.157 43.7214 535.251 43.6432 535.772 43.5391L534.248 47.7578C533.545 47.5755 532.751 47.4062 531.866 47.25C531.084 47.1198 530.134 47.0026 529.014 46.8984C527.92 46.7682 526.644 46.7031 525.186 46.7031C524.665 46.7031 524.066 46.7292 523.389 46.7812C522.712 46.8073 522.061 46.8464 521.436 46.8984C520.707 46.9505 519.965 47.0026 519.209 47.0547V62.4844C521.319 62.4583 523.22 62.4062 524.913 62.3281C526.605 62.25 528.051 62.1458 529.248 62.0156C530.655 61.9115 531.892 61.7682 532.959 61.5859L532.022 66.2344C530.59 66.0521 529.144 65.8958 527.686 65.7656C526.436 65.6354 525.056 65.5312 523.545 65.4531C522.035 65.349 520.59 65.2969 519.209 65.2969V83.0312C521.631 83.0312 523.858 82.9401 525.889 82.7578C527.92 82.5495 529.691 82.3281 531.202 82.0938C532.972 81.8073 534.574 81.4818 536.006 81.1172L535.108 86.2344C534.717 86.2083 534.079 86.1693 533.194 86.1172C532.334 86.0911 531.423 86.0651 530.459 86.0391C529.522 86.0391 528.636 86.026 527.803 86C526.97 86 526.397 86 526.084 86H511.28V85.8438C511.462 85.2969 511.618 84.5938 511.748 83.7344C511.905 82.875 512.022 81.8203 512.1 80.5703C512.204 79.2943 512.282 77.7839 512.334 76.0391C512.386 74.2943 512.413 72.25 512.413 69.9062V60.0625C512.413 57.7188 512.386 55.6875 512.334 53.9688C512.282 52.224 512.204 50.7266 512.1 49.4766C512.022 48.2005 511.905 47.1328 511.748 46.2734C511.618 45.4141 511.462 44.7109 511.28 44.1641V44.0078ZM583.056 86.5469H581.533L550.478 56V69.9062C550.478 72.25 550.491 74.2943 550.517 76.0391C550.543 77.7839 550.582 79.2943 550.634 80.5703C550.712 81.8203 550.804 82.875 550.908 83.7344C551.038 84.5938 551.194 85.2969 551.377 85.8438V86H545.517V85.8438C545.699 85.2969 545.856 84.5938 545.986 83.7344C546.116 82.875 546.22 81.8203 546.298 80.5703C546.377 79.2943 546.429 77.7839 546.455 76.0391C546.481 74.2943 546.494 72.25 546.494 69.9062V60.0625C546.494 57.7188 546.481 55.6875 546.455 53.9688C546.429 52.224 546.377 50.7266 546.298 49.4766C546.22 48.2005 546.116 47.1328 545.986 46.2734C545.856 45.4141 545.699 44.7109 545.517 44.1641V44.0078H547.939L579.033 74.7109V60.0625C579.033 57.7188 579.02 55.6875 578.994 53.9688C578.968 52.224 578.916 50.7266 578.837 49.4766C578.785 48.2005 578.707 47.1328 578.603 46.2734C578.499 45.4141 578.356 44.7109 578.173 44.1641V44.0078H583.994V44.1641C583.811 44.7109 583.655 45.4141 583.525 46.2734C583.421 47.1328 583.33 48.2005 583.252 49.4766C583.173 50.7266 583.121 52.224 583.095 53.9688C583.069 55.6875 583.056 57.7188 583.056 60.0625V86.5469Z" fill="#007D81"/>
</svg>
