<svg width="140" height="113" viewBox="0 0 140 113" fill="none" xmlns="http://www.w3.org/2000/svg">
<path d="M11 15H6C2.68629 15 0 17.6863 0 21V104.001C0 110 4.5 112.158 10 111.5C27 109.465 44 104.5 61 110C55 104.001 48 104.221 40.6555 103.67C26.0309 102.574 11 101.448 11 90.6796V15Z" fill="#007D81"/>
<path d="M15 5.04484C15 -6.45564 58.5 2.54443 68 23.5449C68 23.5449 68.0001 128.045 68 110.545C68 93.0444 14.9999 107.544 15 88.0448C15.0001 68.5452 15 5.04484 15 5.04484Z" fill="#089DA1"/>
<path d="M129 15H134C137.314 15 140 17.6863 140 21V104.001C140 110 135.5 112.158 130 111.5C113 109.465 96 104.5 79 110C85 104.001 92 104.221 99.3445 103.67C113.969 102.574 129 101.448 129 90.6796V15Z" fill="#089DA1"/>
<path d="M125 5.04484C125 -6.45564 81.5 2.54443 72 23.5449C72 23.5449 71.9999 128.045 72 110.545C72 93.0444 125 107.544 125 88.0448C125 68.5452 125 5.04484 125 5.04484Z" fill="#0DB4B8"/>
</svg>
