<svg width="320" height="350" viewBox="0 0 320 350" fill="none" xmlns="http://www.w3.org/2000/svg">
<path fill-rule="evenodd" clip-rule="evenodd" d="M103.195 78.7037C141.054 48.0922 176.52 13.9212 208.49 17.2218C240.396 20.4577 268.807 61.2946 279.551 100.384C290.229 139.538 283.239 176.945 268.354 214.935C253.534 252.859 230.818 291.366 198.459 301.268C166.165 311.105 124.163 292.337 86.9504 264.573C49.8024 236.809 17.3788 200.05 21.3266 168.208C25.2097 136.303 65.3994 109.315 103.195 78.7037Z" fill="#F8F8F8"/>
<circle cx="149.392" cy="267.044" r="3" fill="#1AD6CA"/>
<circle cx="249.392" cy="122.044" r="5" fill="#1A9ED6"/>
<circle cx="57.3916" cy="133.044" r="5" fill="#0ED6B2"/>
<path fill-rule="evenodd" clip-rule="evenodd" d="M209.452 55.6604C212.824 55.0153 216.224 54.6633 219.65 54.6043C220.064 54.5971 220.42 54.7375 220.718 55.0253C221.016 55.3131 221.168 55.6641 221.176 56.0782L221.176 56.0976C221.177 56.2931 221.141 56.4817 221.068 56.6631C220.995 56.8446 220.89 57.0056 220.755 57.1463C220.616 57.2893 220.456 57.4005 220.274 57.4798C220.091 57.559 219.901 57.6004 219.702 57.6038C216.447 57.6599 213.219 57.9942 210.015 58.607C209.82 58.6443 209.625 58.6429 209.43 58.6027C209.235 58.5624 209.056 58.4864 208.891 58.3747C208.729 58.2649 208.594 58.1286 208.486 57.9659C208.377 57.8031 208.303 57.626 208.264 57.4344C208.263 57.4312 208.263 57.4281 208.262 57.4249C208.261 57.4218 208.261 57.4186 208.26 57.4155C208.182 57.0086 208.26 56.6339 208.492 56.2912C208.725 55.9485 209.045 55.7382 209.452 55.6604V55.6604ZM228.155 56.5609C228.154 56.5641 228.154 56.5673 228.154 56.5705C228.153 56.5737 228.153 56.5769 228.152 56.5801C228.124 56.7737 228.134 56.9653 228.181 57.1551C228.228 57.3449 228.309 57.5188 228.425 57.6768C228.542 57.8375 228.685 57.9697 228.855 58.0734C229.025 58.1771 229.208 58.2443 229.404 58.2752C232.618 58.7793 235.766 59.5572 238.847 60.6089C239.235 60.7415 239.614 60.7186 239.984 60.5401C240.353 60.3616 240.607 60.079 240.744 59.6923C240.745 59.6893 240.746 59.6862 240.748 59.6832C240.749 59.6801 240.75 59.6771 240.751 59.674C240.815 59.4857 240.841 59.2924 240.828 59.0939C240.816 58.8953 240.765 58.7068 240.678 58.5283C240.59 58.3497 240.471 58.1947 240.322 58.0633C240.173 57.9319 240.004 57.8341 239.816 57.7698C236.571 56.6619 233.255 55.8425 229.869 55.3114C229.46 55.2472 229.088 55.3371 228.753 55.5811C228.419 55.8251 228.219 56.1516 228.155 56.5609V56.5609ZM201.526 59.3324C201.593 59.5163 201.623 59.706 201.615 59.9014C201.607 60.0968 201.563 60.2836 201.482 60.4618C201.4 60.643 201.287 60.8016 201.142 60.9376C200.997 61.0736 200.831 61.1766 200.645 61.2468C197.644 62.377 194.763 63.7497 192.001 65.3648C191.953 65.393 191.906 65.4209 191.859 65.4484C191.502 65.6586 191.123 65.7118 190.722 65.608C190.321 65.5042 190.015 65.2739 189.805 64.9169C189.704 64.7455 189.64 64.5613 189.612 64.3643C189.585 64.1674 189.596 63.9726 189.646 63.78C189.696 63.5874 189.78 63.4117 189.9 63.2529C190.02 63.0941 190.165 62.9642 190.337 62.8633C193.29 61.1244 196.373 59.6498 199.587 58.4393C199.975 58.2933 200.357 58.3057 200.735 58.4766C201.112 58.6474 201.374 58.9267 201.52 59.3143C201.521 59.3173 201.522 59.3203 201.523 59.3233C201.524 59.3264 201.525 59.3294 201.526 59.3324V59.3324ZM247.165 62.5019C247.164 62.5047 247.162 62.5075 247.161 62.5103C247.159 62.5132 247.158 62.516 247.156 62.5188C246.964 62.8814 246.926 63.2593 247.044 63.6525C247.162 64.0457 247.401 64.3408 247.761 64.5379C248.148 64.7495 248.532 64.9656 248.914 65.1861C251.368 66.6028 253.695 68.1858 255.896 69.9352C256.217 70.1906 256.582 70.2963 256.99 70.2524C257.398 70.2084 257.731 70.0275 257.991 69.7095C257.993 69.707 257.995 69.7045 257.997 69.702C257.999 69.6995 258.001 69.697 258.003 69.6944C258.127 69.5387 258.216 69.3653 258.271 69.174C258.326 68.9828 258.342 68.7884 258.319 68.5908C258.297 68.3931 258.237 68.2074 258.141 68.0334C258.044 67.8595 257.918 67.7106 257.762 67.5868C255.446 65.7452 252.996 64.0789 250.414 62.5881C250.012 62.3559 249.608 62.1285 249.201 61.9061C249.027 61.8106 248.84 61.7522 248.643 61.7307C248.445 61.7093 248.251 61.7265 248.06 61.7824C247.869 61.8382 247.696 61.9285 247.541 62.0532C247.386 62.1779 247.261 62.3274 247.165 62.5019V62.5019ZM263.094 74.5162C263.091 74.5184 263.089 74.5205 263.086 74.5227C263.084 74.5249 263.082 74.5271 263.079 74.5293C262.776 74.8056 262.613 75.1487 262.591 75.5585C262.569 75.9683 262.695 76.3267 262.967 76.6337C265.125 79.0665 267.059 81.6696 268.77 84.4431C268.874 84.6124 269.007 84.7553 269.168 84.8718C269.329 84.9882 269.507 85.0694 269.7 85.1153C269.89 85.1605 270.082 85.1681 270.275 85.1382C270.469 85.1083 270.649 85.0431 270.817 84.9426C270.82 84.941 270.823 84.9393 270.825 84.9377C270.828 84.936 270.831 84.9343 270.834 84.9326C271.186 84.7152 271.41 84.405 271.506 84.002C271.601 83.599 271.541 83.2212 271.323 82.8686C269.522 79.9474 267.485 77.2054 265.211 74.6428C264.936 74.3329 264.592 74.1657 264.179 74.1409C263.765 74.1162 263.404 74.2413 263.094 74.5162V74.5162ZM273.981 91.1846C273.978 91.1858 273.975 91.187 273.972 91.1883C273.969 91.1895 273.966 91.1907 273.963 91.192C273.584 91.3493 273.315 91.6171 273.156 91.9954C272.996 92.3737 272.993 92.7534 273.146 93.1345C274.355 96.1582 275.299 99.2635 275.976 102.45C276.017 102.645 276.094 102.824 276.207 102.988C276.319 103.152 276.459 103.288 276.626 103.397C276.79 103.503 276.968 103.575 277.16 103.612C277.352 103.649 277.544 103.648 277.736 103.61C277.739 103.609 277.742 103.609 277.745 103.608C277.748 103.607 277.751 103.607 277.755 103.606C278.16 103.52 278.475 103.303 278.701 102.956C278.926 102.608 278.996 102.232 278.91 101.827C278.197 98.4722 277.204 95.2032 275.931 92.0201C275.857 91.8354 275.751 91.6719 275.612 91.5296C275.473 91.3872 275.312 91.2769 275.129 91.1985C274.946 91.1202 274.755 91.0798 274.556 91.0774C274.358 91.075 274.166 91.1107 273.981 91.1846V91.1846ZM277.761 123.829C277.759 123.829 277.757 123.829 277.755 123.828C277.753 123.828 277.75 123.828 277.748 123.827C277.341 123.768 277.013 123.575 276.765 123.246C276.518 122.917 276.421 122.549 276.477 122.141C276.824 119.579 277.07 116.877 277.216 114.035C277.213 113.394 277.2 112.752 277.176 112.111C277.16 111.701 277.291 111.345 277.568 111.042C277.845 110.739 278.189 110.577 278.599 110.557C278.602 110.556 278.605 110.556 278.609 110.556C278.612 110.556 278.615 110.556 278.618 110.556C279.032 110.54 279.391 110.673 279.695 110.955C279.998 111.236 280.158 111.584 280.174 111.998C280.2 112.688 280.214 113.377 280.216 114.066C280.216 114.08 280.216 114.093 280.215 114.107C280.215 114.12 280.215 114.134 280.214 114.147C280.064 117.087 279.81 119.886 279.449 122.544C279.423 122.741 279.359 122.926 279.259 123.098C279.159 123.27 279.03 123.416 278.872 123.536C278.713 123.657 278.538 123.742 278.346 123.793C278.153 123.844 277.959 123.856 277.761 123.829V123.829ZM271.094 140.55C270.905 140.913 270.87 141.29 270.99 141.68C271.109 142.071 271.348 142.364 271.707 142.56C271.711 142.562 271.715 142.564 271.72 142.567C271.724 142.569 271.728 142.571 271.732 142.573C271.909 142.665 272.096 142.72 272.294 142.737C272.492 142.754 272.686 142.733 272.876 142.673C273.066 142.613 273.237 142.519 273.389 142.391C273.541 142.263 273.663 142.111 273.755 141.935C275.229 139.1 276.457 135.94 277.438 132.454C277.55 132.055 277.505 131.675 277.303 131.314C277.1 130.952 276.799 130.716 276.401 130.603C276.398 130.603 276.395 130.602 276.392 130.601C276.389 130.6 276.386 130.599 276.383 130.598C276.194 130.548 276.002 130.535 275.808 130.559C275.614 130.583 275.431 130.643 275.261 130.739C275.087 130.836 274.939 130.963 274.816 131.119C274.693 131.276 274.604 131.449 274.55 131.641C273.625 134.929 272.473 137.898 271.094 140.55V140.55ZM258.296 153.653C258.258 153.672 258.221 153.693 258.185 153.716C258.148 153.738 258.113 153.762 258.079 153.788C257.787 154.006 257.599 154.293 257.516 154.649C257.433 155.005 257.475 155.345 257.64 155.67C257.731 155.848 257.851 156.001 258.003 156.13C258.154 156.259 258.324 156.354 258.513 156.416C258.703 156.477 258.896 156.5 259.095 156.485C259.293 156.469 259.481 156.416 259.658 156.326C262.673 154.79 265.361 152.811 267.724 150.389C267.863 150.247 267.97 150.083 268.044 149.898C268.117 149.714 268.153 149.522 268.151 149.323C268.148 149.124 268.108 148.933 268.029 148.751C267.951 148.568 267.841 148.407 267.698 148.268C267.694 148.264 267.689 148.259 267.685 148.255C267.68 148.251 267.676 148.247 267.671 148.242C267.373 147.965 267.021 147.832 266.614 147.842C266.207 147.852 265.861 148.003 265.577 148.294C263.444 150.48 261.017 152.266 258.296 153.653V153.653Z" fill="#016D71"/>
<rect width="18" height="4" rx="2" transform="matrix(-0.906308 -0.422618 -0.422618 0.906308 85.6283 74.1885)" fill="#016D71"/>
<rect width="18" height="4" rx="2" transform="matrix(-0.707107 -0.707107 -0.707107 0.707107 92.3156 65.6416)" fill="#016D71"/>
<rect x="83.554" y="88.272" width="18" height="4" rx="2" transform="rotate(176 83.554 88.272)" fill="#016D71"/>
<path fill-rule="evenodd" clip-rule="evenodd" d="M37.2734 245.294C36.7229 246.376 36.7943 247.671 37.4605 248.687L58.6096 280.927C60.2174 283.378 63.8988 283.083 65.0968 280.408L76.3749 255.222C84.7659 236.483 105.521 226.611 125.353 231.925V231.925C139.003 235.582 153.578 232.097 164.096 222.659L167.861 219.281C180.727 207.735 198.556 203.471 215.254 207.946L219.105 208.977C237.205 213.828 256.534 209.713 271.09 197.911L287.167 184.875C288.687 183.643 289.092 181.493 288.126 179.792L270.538 148.837C269.379 146.798 266.723 146.188 264.791 147.519L246.492 160.125C231.687 170.324 213.457 174.272 195.759 171.111L194.851 170.949C177.29 167.813 159.207 171.91 144.712 182.309L137.981 187.137C127.394 194.732 114.129 197.594 101.353 195.038V195.038C80.6768 190.903 59.7764 201.038 50.2196 219.833L37.2734 245.294Z" fill="#089DA1"/>
<path fill-rule="evenodd" clip-rule="evenodd" d="M32.0597 237.951L50.5827 201.098C54.5528 193.199 60.5711 187.44 68.6375 183.822C76.7039 180.204 85.0068 179.539 93.5462 181.828L94.9291 182.198C103.033 184.37 111.165 184.48 119.325 182.528C127.485 180.576 134.687 176.799 140.931 171.196L140.935 171.193C147.555 165.253 155.192 161.248 163.844 159.178C172.497 157.109 181.121 157.225 189.714 159.528L196.34 161.303C198.73 161.944 201.125 162.41 203.525 162.703C209.102 163.384 214.704 163.125 220.331 161.928C228.378 160.215 235.597 156.767 241.988 151.586L258.576 138.135L262.929 134.606C263.251 134.345 263.617 134.236 264.029 134.279C264.441 134.322 264.778 134.505 265.039 134.827C265.164 134.981 265.255 135.154 265.312 135.344C265.368 135.535 265.386 135.729 265.365 135.927C265.345 136.125 265.287 136.311 265.192 136.486C265.097 136.661 264.973 136.811 264.818 136.936L243.877 153.916C237.113 159.4 229.473 163.049 220.956 164.862C213.45 166.46 205.985 166.478 198.562 164.918C197.562 164.708 196.562 164.469 195.563 164.201L188.938 162.426C180.834 160.254 172.702 160.144 164.542 162.096C156.383 164.047 149.181 167.825 142.935 173.429L142.933 173.431C136.311 179.371 128.675 183.376 120.023 185.446C111.37 187.515 102.746 187.399 94.1526 185.096L92.7697 184.725C84.9174 182.621 77.2826 183.233 69.8652 186.56C62.4479 189.887 56.9139 195.182 53.2631 202.445L35.5641 237.659L34.7401 239.299C34.5541 239.669 34.2645 239.919 33.8713 240.049C33.478 240.179 33.0964 240.151 32.7263 239.965C32.5485 239.876 32.3947 239.756 32.2647 239.605C32.1347 239.455 32.0384 239.285 31.9759 239.096C31.9134 238.907 31.8894 238.714 31.9039 238.515C31.9184 238.317 31.9703 238.129 32.0597 237.951V237.951Z" fill="#016D71"/>
<path fill-rule="evenodd" clip-rule="evenodd" d="M53.9942 275.92L72.5172 239.067C76.4874 231.168 82.5057 225.409 90.5721 221.791C98.6385 218.173 106.941 217.508 115.481 219.796L116.864 220.167C124.968 222.338 133.1 222.448 141.259 220.497C149.419 218.545 156.621 214.768 162.866 209.165L162.87 209.161C169.49 203.221 177.126 199.216 185.779 197.147C194.432 195.077 203.055 195.194 211.649 197.497L218.274 199.272C220.665 199.912 223.06 200.379 225.459 200.672C231.037 201.353 236.639 201.094 242.266 199.896C250.313 198.183 257.532 194.736 263.922 189.554L280.511 176.104L284.863 172.575C285.185 172.314 285.552 172.205 285.964 172.248C286.376 172.291 286.712 172.474 286.973 172.795C287.099 172.95 287.189 173.122 287.246 173.313C287.303 173.504 287.321 173.698 287.3 173.896C287.279 174.094 287.222 174.28 287.127 174.455C287.032 174.63 286.907 174.78 286.753 174.905L265.812 191.885C259.048 197.369 251.407 201.018 242.89 202.831C235.385 204.429 227.92 204.447 220.497 202.887C219.496 202.676 218.497 202.437 217.498 202.17L210.873 200.394C202.769 198.223 194.637 198.113 186.477 200.065C178.318 202.016 171.116 205.794 164.869 211.397L164.867 211.399C158.246 217.34 150.609 221.345 141.957 223.414C133.304 225.484 124.681 225.367 116.087 223.065L114.704 222.694C106.852 220.59 99.2171 221.202 91.7998 224.528C84.3824 227.855 78.8484 233.151 75.1977 240.414L57.4987 275.628L56.6747 277.267C56.4887 277.637 56.1991 277.888 55.8058 278.018C55.4126 278.148 55.0309 278.12 54.6608 277.934C54.4831 277.845 54.3292 277.725 54.1992 277.574C54.0692 277.424 53.973 277.254 53.9104 277.065C53.8479 276.876 53.8239 276.683 53.8385 276.484C53.853 276.286 53.9049 276.098 53.9942 275.92V275.92Z" fill="#016D71"/>
<path fill-rule="evenodd" clip-rule="evenodd" d="M274.637 153.841C274.745 153.754 274.867 153.718 275.004 153.732C275.141 153.747 275.254 153.808 275.341 153.915C275.382 153.966 275.413 154.024 275.432 154.087C275.45 154.151 275.456 154.216 275.45 154.282C275.443 154.348 275.423 154.41 275.392 154.468C275.36 154.526 275.319 154.576 275.267 154.618L267.5 160.916C267.448 160.958 267.391 160.988 267.327 161.007C267.263 161.026 267.199 161.032 267.133 161.025C267.067 161.018 267.005 160.999 266.946 160.967C266.888 160.936 266.838 160.894 266.796 160.843C266.755 160.791 266.724 160.734 266.705 160.67C266.686 160.607 266.681 160.542 266.687 160.476C266.694 160.41 266.714 160.348 266.745 160.289C266.777 160.231 266.818 160.181 266.87 160.139L274.637 153.841V153.841ZM257.548 167.697C257.655 167.61 257.778 167.573 257.915 167.588C258.052 167.602 258.164 167.663 258.251 167.77C258.293 167.822 258.323 167.879 258.342 167.943C258.361 168.006 258.367 168.071 258.36 168.137C258.353 168.203 258.334 168.265 258.302 168.323C258.271 168.382 258.229 168.432 258.178 168.473L256.165 170.106C254.237 171.669 252.209 173.091 250.083 174.371C250.026 174.405 249.965 174.428 249.899 174.437C249.834 174.447 249.769 174.444 249.705 174.428C249.64 174.412 249.581 174.385 249.528 174.345C249.475 174.306 249.431 174.258 249.397 174.201L249.396 174.199C249.325 174.081 249.307 173.955 249.34 173.821C249.374 173.688 249.449 173.586 249.567 173.515C251.654 172.258 253.643 170.863 255.535 169.329L257.548 167.697V167.697ZM238.716 178.464C238.847 178.421 238.973 178.431 239.096 178.493C239.219 178.556 239.302 178.652 239.345 178.783L239.346 178.785C239.366 178.848 239.374 178.913 239.369 178.979C239.363 179.045 239.346 179.108 239.315 179.167C239.285 179.226 239.245 179.277 239.195 179.32C239.144 179.363 239.087 179.395 239.024 179.415C235.794 180.463 232.493 181.197 229.122 181.615C229.056 181.623 228.991 181.618 228.927 181.6C228.863 181.583 228.805 181.554 228.753 181.513C228.701 181.472 228.658 181.423 228.625 181.365C228.593 181.308 228.572 181.246 228.564 181.18L228.564 181.178C228.548 181.041 228.582 180.919 228.667 180.81C228.751 180.702 228.862 180.639 228.999 180.622C232.306 180.212 235.545 179.493 238.716 178.464V178.464ZM207.134 179.771C207.001 179.736 206.899 179.658 206.83 179.538C206.761 179.419 206.745 179.292 206.78 179.159C206.816 179.026 206.894 178.924 207.013 178.855C207.133 178.786 207.259 178.77 207.393 178.805L208.999 179.236C210.89 179.742 212.801 180.142 214.732 180.433C215.51 180.551 216.292 180.651 217.076 180.733C217.142 180.74 217.204 180.759 217.263 180.791C217.321 180.823 217.371 180.864 217.413 180.916C217.454 180.967 217.484 181.024 217.503 181.087C217.522 181.15 217.528 181.215 217.522 181.28L217.521 181.283C217.507 181.42 217.446 181.532 217.339 181.619C217.231 181.706 217.109 181.742 216.972 181.728C215.664 181.59 214.366 181.405 213.076 181.172C211.619 180.909 210.174 180.586 208.74 180.202L207.134 179.771V179.771ZM196.124 176.698L196.124 176.696C196.142 176.559 196.109 176.436 196.024 176.326C195.94 176.217 195.83 176.153 195.693 176.135C192.321 175.695 188.938 175.589 185.544 175.817C185.478 175.822 185.415 175.838 185.356 175.868C185.297 175.897 185.245 175.937 185.201 175.987C185.158 176.037 185.125 176.093 185.104 176.156C185.083 176.219 185.075 176.283 185.079 176.349L185.079 176.352C185.089 176.489 185.146 176.603 185.25 176.693C185.354 176.784 185.474 176.824 185.611 176.815C188.939 176.591 192.256 176.695 195.563 177.127C195.7 177.145 195.823 177.112 195.932 177.028C196.041 176.945 196.105 176.835 196.124 176.698L196.124 176.698ZM174.215 178.387L174.215 178.385C174.173 178.253 174.092 178.155 173.969 178.091C173.847 178.027 173.72 178.016 173.588 178.057C170.359 179.067 167.258 180.382 164.287 182.002C164.166 182.068 164.086 182.167 164.047 182.3C164.008 182.432 164.021 182.559 164.087 182.68L164.088 182.683C164.155 182.803 164.254 182.883 164.386 182.921C164.518 182.96 164.645 182.946 164.766 182.88C167.679 181.292 170.72 180.002 173.887 179.011C174.018 178.97 174.116 178.889 174.18 178.767C174.244 178.645 174.256 178.519 174.215 178.387L174.215 178.387ZM154.414 188.999C154.517 188.907 154.638 188.865 154.776 188.873C154.913 188.881 155.028 188.936 155.12 189.039C155.212 189.142 155.254 189.263 155.246 189.401C155.239 189.538 155.183 189.653 155.08 189.745C152.564 191.991 149.854 193.971 146.95 195.685C146.831 195.755 146.705 195.773 146.571 195.739C146.437 195.704 146.335 195.627 146.265 195.509L146.264 195.506C146.194 195.388 146.177 195.262 146.212 195.128C146.246 194.995 146.323 194.894 146.441 194.824C149.289 193.143 151.947 191.201 154.414 188.999V188.999ZM136.167 199.96C136.126 199.829 136.045 199.731 135.923 199.667C135.802 199.603 135.675 199.591 135.544 199.631C132.356 200.608 129.103 201.265 125.786 201.6C125.649 201.614 125.537 201.674 125.45 201.78C125.363 201.887 125.326 202.008 125.339 202.145L125.339 202.148C125.353 202.285 125.413 202.397 125.52 202.485C125.627 202.572 125.749 202.609 125.887 202.595C129.27 202.253 132.586 201.584 135.837 200.587C135.969 200.546 136.067 200.465 136.132 200.343C136.197 200.221 136.209 200.094 136.168 199.962L136.167 199.96L136.167 199.96ZM114.285 201.953C114.303 201.817 114.27 201.694 114.187 201.585C114.103 201.475 113.993 201.411 113.857 201.393C111.741 201.104 109.651 200.684 107.588 200.131L106.205 199.761C105.546 199.584 104.882 199.426 104.214 199.287C104.149 199.273 104.084 199.273 104.019 199.285C103.954 199.297 103.893 199.322 103.838 199.358C103.782 199.394 103.736 199.44 103.699 199.495C103.661 199.549 103.636 199.609 103.622 199.674L103.622 199.678C103.595 199.812 103.619 199.937 103.695 200.052C103.77 200.166 103.875 200.238 104.01 200.266C104.66 200.401 105.306 200.555 105.947 200.726L107.33 201.097C109.433 201.661 111.564 202.09 113.722 202.384C113.859 202.402 113.982 202.37 114.092 202.286C114.202 202.203 114.266 202.093 114.285 201.956L114.285 201.953L114.285 201.953ZM92.642 199.268L92.6415 199.265C92.6235 199.128 92.5598 199.017 92.4502 198.933C92.3407 198.849 92.2175 198.816 92.0806 198.834C88.6977 199.279 85.4423 200.184 82.3144 201.547C82.1879 201.602 82.0993 201.694 82.0489 201.823C81.9984 201.951 82.0007 202.079 82.0559 202.205L82.0573 202.208C82.1131 202.334 82.205 202.422 82.3331 202.471C82.4611 202.521 82.5881 202.519 82.714 202.464C85.7557 201.138 88.9214 200.258 92.211 199.826C92.3473 199.808 92.4574 199.744 92.5414 199.636C92.6254 199.527 92.659 199.404 92.642 199.268L92.642 199.268ZM72.8264 208.254L72.824 208.251C72.7789 208.203 72.7262 208.165 72.6659 208.137C72.6056 208.11 72.5423 208.095 72.4761 208.092C72.4098 208.09 72.3456 208.1 72.2835 208.123C72.2213 208.146 72.1659 208.18 72.1174 208.225C69.6161 210.549 67.4852 213.174 65.7247 216.099C65.6905 216.156 65.6685 216.217 65.6587 216.283C65.6488 216.348 65.6519 216.413 65.6679 216.477C65.6839 216.542 65.7116 216.601 65.751 216.654C65.7904 216.707 65.8385 216.751 65.8953 216.785C65.8958 216.786 65.8963 216.786 65.8968 216.786C65.8973 216.786 65.8978 216.787 65.8983 216.787C66.0165 216.857 66.1422 216.875 66.2755 216.842C66.4087 216.808 66.5107 216.732 66.5815 216.615C68.2935 213.77 70.3656 211.218 72.798 208.958C72.8987 208.865 72.9517 208.749 72.9573 208.612C72.9628 208.475 72.9192 208.355 72.8264 208.254L72.8264 208.254ZM55.7228 236.092C55.7436 236.155 55.7757 236.212 55.819 236.262C55.8624 236.312 55.9137 236.352 55.9729 236.382C56.0963 236.444 56.2235 236.453 56.3546 236.41C56.4856 236.366 56.5822 236.283 56.6442 236.159L61.135 227.225C61.1648 227.165 61.1821 227.103 61.1869 227.036C61.1918 226.97 61.1838 226.906 61.1629 226.843C61.1421 226.78 61.11 226.723 61.0667 226.673C61.0233 226.623 60.972 226.583 60.9128 226.553C60.7894 226.491 60.6622 226.482 60.5311 226.525C60.4 226.569 60.3035 226.652 60.2415 226.775L55.7507 235.71C55.7209 235.77 55.7036 235.832 55.6988 235.898C55.6939 235.965 55.7019 236.029 55.7228 236.092V236.092ZM51.033 246.21C50.9096 246.148 50.7824 246.139 50.6513 246.182C50.5202 246.226 50.4237 246.309 50.3617 246.432L45.8709 255.367C45.8411 255.427 45.8238 255.489 45.819 255.555C45.8141 255.622 45.8221 255.686 45.843 255.749C45.8638 255.812 45.8959 255.869 45.9392 255.919C45.9826 255.969 46.0338 256.009 46.0931 256.039C46.2165 256.101 46.3437 256.11 46.4748 256.067C46.6058 256.023 46.7024 255.94 46.7644 255.816L47.039 255.27L51.2552 246.881C51.285 246.822 51.3023 246.76 51.3071 246.693C51.312 246.627 51.304 246.563 51.2831 246.5C51.2623 246.437 51.2302 246.38 51.1869 246.33C51.1435 246.28 51.0922 246.24 51.033 246.21V246.21Z" fill="#016D71"/>
<ellipse cx="152.142" cy="113.183" rx="60.25" ry="83.7206" fill="#F8F8F8"/>
<path d="M215.392 84.0444C215.392 115.531 192.166 155.159 177.86 176.582C172.352 184.829 160.913 185.255 155.044 177.261C140.687 157.705 118.392 121.334 118.392 84.0444C118.392 56.9825 140.106 35.0444 166.892 35.0444C193.678 35.0444 215.392 56.9825 215.392 84.0444Z" fill="#0DB4B8"/>
<path fill-rule="evenodd" clip-rule="evenodd" d="M200.392 89.0444C200.392 114.536 180.784 178.045 155.849 184.3C153.707 184.838 150.076 184.838 147.934 184.297C122.999 177.999 103.392 114.07 103.392 89.0444C103.392 62.7095 125.106 40.5854 151.892 40.5854C178.677 40.5854 200.392 62.2183 200.392 89.0444V89.0444ZM184.689 142.762C175.334 165.916 165.477 178.792 155.119 181.39C152.965 181.931 150.815 181.93 148.669 181.388C138.329 178.777 128.471 165.838 119.095 142.572C115.243 133.014 112.134 123.131 109.767 112.922C107.517 103.213 106.392 95.2539 106.392 89.0444C106.392 76.653 110.836 65.9899 119.724 57.0551C128.657 48.0753 139.379 43.5854 151.892 43.5854C164.464 43.5854 175.189 48.0164 184.067 56.8783C192.95 65.746 197.392 76.4681 197.392 89.0444C197.392 95.3636 196.266 103.391 194.015 113.127C191.654 123.34 188.546 133.218 184.689 142.762V142.762Z" fill="#016D71"/>
<path fill-rule="evenodd" clip-rule="evenodd" d="M147.171 111.405C147.171 111.405 147.566 106.13 148.203 104.421C148.84 102.712 150.14 100.818 152.102 98.7376L157.109 93.7226C159.25 91.3699 160.32 88.8438 160.32 86.1444C160.32 83.544 159.619 81.5071 158.218 80.0335C156.816 78.56 153.721 77.8232 152.102 77.8232C150.483 77.8232 148.203 77.8232 145.833 79.8292C143.463 81.8352 143.463 85.2157 143.463 85.2157C143.463 85.2157 142.68 88.5427 139.523 88.5427C136.366 88.5427 136.392 85.2157 136.392 85.2157C136.443 81.2037 137.914 77.9656 140.807 75.5015C143.699 73.0373 147.464 71.0444 152.102 71.0444C156.918 71.0444 160.671 73.0621 163.359 75.5758C166.047 78.0895 167.392 81.538 167.392 85.9215C167.392 90.2555 165.328 94.5275 161.199 98.7376L157.033 102.75C155.173 104.756 154.243 107.641 154.243 111.405C154.243 111.405 153.614 115.209 150.483 115.209C147.351 115.209 147.171 111.405 147.171 111.405ZM146.865 126.181C146.865 125.067 147.216 124.132 147.916 123.376C148.617 122.621 149.656 122.243 151.032 122.243C152.408 122.243 153.453 122.621 154.166 123.376C154.88 124.132 155.236 125.067 155.236 126.181C155.236 127.295 154.88 128.218 154.166 128.949C153.453 129.679 152.408 130.044 151.032 130.044C149.656 130.044 148.617 129.679 147.916 128.949C147.216 128.218 146.865 127.295 146.865 126.181Z" fill="#016D71"/>
</svg>
