<svg width="320" height="350" viewBox="0 0 320 350" fill="none" xmlns="http://www.w3.org/2000/svg">
<path fill-rule="evenodd" clip-rule="evenodd" d="M242.211 125.195C272.823 163.054 306.994 198.52 303.693 230.49C300.457 262.396 259.62 290.807 220.531 301.551C181.377 312.229 143.97 305.239 105.98 290.354C68.0558 275.534 29.5487 252.818 19.6469 220.459C9.80978 188.165 28.5779 146.163 56.3419 108.95C84.1058 71.8024 120.865 39.3788 152.707 43.3266C184.612 47.2097 211.6 87.3994 242.211 125.195Z" fill="#F8F8F8"/>
<circle cx="57.9973" cy="259.438" r="3" fill="#1AD6CA"/>
<circle cx="71.9973" cy="98.4375" r="5" fill="#1A9ED6"/>
<circle cx="277.997" cy="169.438" r="5" fill="#0ED6B2"/>
<path fill-rule="evenodd" clip-rule="evenodd" d="M187.156 137.446C190.548 137.037 193.951 136.876 197.363 136.962C197.777 136.972 198.126 137.128 198.412 137.428C198.697 137.728 198.835 138.085 198.824 138.499C198.824 138.502 198.824 138.505 198.824 138.508C198.824 138.51 198.824 138.513 198.824 138.516C198.817 138.712 198.773 138.899 198.692 139.078C198.612 139.257 198.5 139.414 198.358 139.549C198.214 139.686 198.049 139.79 197.864 139.861C197.678 139.933 197.486 139.966 197.287 139.961C194.149 139.882 191.019 140.021 187.898 140.379C187.77 140.394 187.642 140.409 187.515 140.424C187.104 140.474 186.735 140.37 186.409 140.115C186.083 139.859 185.896 139.525 185.846 139.114C185.822 138.917 185.837 138.722 185.891 138.531C185.944 138.339 186.033 138.165 186.156 138.009C186.278 137.852 186.426 137.725 186.6 137.628C186.773 137.53 186.959 137.469 187.156 137.446V137.446ZM205.791 139.184C205.79 139.187 205.79 139.19 205.79 139.193C205.789 139.195 205.789 139.198 205.788 139.201C205.757 139.394 205.763 139.587 205.808 139.778C205.852 139.969 205.93 140.144 206.043 140.304C206.158 140.467 206.299 140.601 206.467 140.708C206.636 140.814 206.818 140.884 207.014 140.918C210.235 141.474 213.397 142.262 216.498 143.282C216.888 143.41 217.267 143.383 217.635 143.199C218.003 143.016 218.253 142.73 218.386 142.341C218.387 142.338 218.388 142.336 218.389 142.333C218.39 142.33 218.39 142.328 218.391 142.325C218.453 142.136 218.477 141.943 218.462 141.744C218.447 141.546 218.395 141.358 218.305 141.18C218.215 141.003 218.095 140.849 217.944 140.719C217.794 140.59 217.624 140.494 217.435 140.432C214.194 139.366 210.891 138.543 207.524 137.962C207.116 137.891 206.743 137.975 206.404 138.214C206.066 138.453 205.861 138.776 205.791 139.184V139.184ZM224.888 145.006C224.887 145.008 224.886 145.011 224.885 145.013C224.884 145.015 224.882 145.018 224.881 145.02C224.795 145.197 224.746 145.383 224.733 145.578C224.72 145.774 224.744 145.965 224.806 146.151C224.868 146.339 224.965 146.509 225.095 146.659C225.225 146.81 225.379 146.93 225.557 147.019C228.466 148.478 231.263 150.145 233.947 152.021C234.11 152.135 234.289 152.213 234.483 152.256C234.677 152.299 234.872 152.303 235.068 152.268C235.261 152.234 235.44 152.164 235.606 152.06C235.772 151.955 235.912 151.823 236.026 151.663C236.028 151.661 236.029 151.659 236.031 151.657C236.033 151.655 236.034 151.653 236.036 151.65C236.273 151.311 236.355 150.937 236.283 150.529C236.211 150.121 236.005 149.799 235.665 149.562C232.862 147.603 229.941 145.861 226.902 144.337C226.531 144.151 226.15 144.124 225.757 144.254C225.364 144.385 225.074 144.635 224.888 145.006V145.006ZM241.522 156.106C241.52 156.108 241.519 156.11 241.517 156.112C241.515 156.114 241.513 156.116 241.511 156.118C241.378 156.262 241.278 156.426 241.209 156.61C241.141 156.794 241.11 156.984 241.116 157.18C241.122 157.378 241.166 157.568 241.247 157.75C241.329 157.931 241.442 158.09 241.587 158.226C243.969 160.467 246.172 162.865 248.196 165.42C248.451 165.742 248.783 165.928 249.191 165.977C249.599 166.027 249.965 165.926 250.29 165.675C250.292 165.673 250.294 165.671 250.297 165.669C250.299 165.668 250.301 165.666 250.303 165.664C250.459 165.541 250.585 165.392 250.682 165.218C250.779 165.045 250.839 164.859 250.862 164.661C250.885 164.464 250.869 164.269 250.814 164.078C250.76 163.887 250.671 163.713 250.548 163.557C248.433 160.887 246.132 158.382 243.643 156.041C243.341 155.757 242.983 155.622 242.569 155.634C242.155 155.647 241.806 155.804 241.522 156.106V156.106ZM254.234 171.455C254.232 171.456 254.229 171.457 254.227 171.459C254.225 171.46 254.222 171.462 254.22 171.463C253.866 171.672 253.637 171.976 253.533 172.373C253.428 172.771 253.479 173.147 253.684 173.503C255.315 176.333 256.733 179.269 257.936 182.312C258.088 182.694 258.351 182.968 258.728 183.133C259.104 183.299 259.484 183.308 259.868 183.161C259.87 183.16 259.873 183.159 259.875 183.158C259.878 183.157 259.88 183.156 259.883 183.155C260.268 183.002 260.543 182.736 260.708 182.356C260.872 181.976 260.878 181.593 260.726 181.208C259.468 178.029 257.987 174.961 256.283 172.005C256.183 171.833 256.055 171.686 255.897 171.565C255.739 171.443 255.564 171.357 255.372 171.305C255.18 171.254 254.986 171.241 254.788 171.267C254.591 171.293 254.406 171.355 254.234 171.455V171.455ZM261.979 189.839C261.976 189.839 261.974 189.84 261.971 189.841C261.968 189.841 261.966 189.842 261.963 189.842C261.564 189.941 261.257 190.166 261.043 190.516C260.829 190.867 260.769 191.242 260.863 191.643C261.612 194.823 262.127 198.041 262.409 201.297C262.445 201.707 262.619 202.045 262.932 202.311C263.246 202.577 263.607 202.695 264.017 202.664C264.02 202.663 264.022 202.663 264.025 202.663C264.028 202.663 264.031 202.663 264.033 202.662C264.446 202.627 264.785 202.45 265.052 202.133C265.319 201.816 265.434 201.451 265.398 201.038C265.104 197.638 264.565 194.277 263.783 190.955C263.688 190.552 263.464 190.241 263.112 190.023C262.76 189.805 262.382 189.744 261.979 189.839V189.839ZM264.114 209.663C263.704 209.643 263.346 209.771 263.04 210.045C262.734 210.32 262.569 210.663 262.545 211.073C262.467 212.41 262.348 213.744 262.19 215.073C261.845 217.045 261.465 218.953 261.051 220.797C260.96 221.2 261.025 221.575 261.244 221.924C261.463 222.273 261.774 222.494 262.176 222.587L262.185 222.59C262.589 222.68 262.967 222.615 263.316 222.393C263.666 222.172 263.887 221.859 263.978 221.455C264.405 219.551 264.797 217.582 265.152 215.55C265.154 215.537 265.156 215.523 265.158 215.51C265.16 215.497 265.162 215.483 265.164 215.47C265.331 214.068 265.457 212.661 265.54 211.249C265.564 210.836 265.439 210.474 265.164 210.165C264.888 209.855 264.544 209.688 264.131 209.664C264.128 209.664 264.125 209.663 264.123 209.663C264.12 209.663 264.117 209.663 264.114 209.663V209.663ZM254.728 239.291C254.544 239.658 254.516 240.037 254.643 240.427C254.77 240.817 255.016 241.107 255.381 241.295C255.383 241.297 255.386 241.298 255.389 241.3C255.392 241.301 255.395 241.303 255.398 241.304C255.768 241.489 256.15 241.517 256.543 241.386C256.936 241.255 257.225 241.005 257.411 240.635C258.854 237.753 260.145 234.61 261.286 231.203C261.417 230.81 261.391 230.429 261.206 230.058C261.021 229.687 260.732 229.436 260.339 229.305L260.327 229.3C259.935 229.173 259.556 229.202 259.188 229.387C258.821 229.573 258.572 229.86 258.441 230.251C257.345 233.523 256.108 236.536 254.728 239.291V239.291ZM242.825 254.277C242.5 254.524 242.308 254.85 242.249 255.253C242.189 255.657 242.28 256.024 242.519 256.354C242.523 256.358 242.526 256.362 242.529 256.367C242.532 256.371 242.535 256.375 242.539 256.379C242.789 256.709 243.12 256.902 243.53 256.958C243.941 257.014 244.311 256.917 244.641 256.666C247.311 254.636 249.75 252.204 251.958 249.37C252.213 249.044 252.315 248.675 252.264 248.264C252.213 247.853 252.024 247.52 251.697 247.265C251.694 247.263 251.69 247.26 251.687 247.257C251.684 247.255 251.68 247.252 251.677 247.25C251.35 247.004 250.983 246.908 250.578 246.962C250.172 247.015 249.843 247.204 249.592 247.527C247.544 250.155 245.288 252.405 242.825 254.277V254.277ZM234.115 259.025C234.111 259.027 234.107 259.028 234.103 259.03C234.1 259.031 234.096 259.033 234.092 259.034C233.71 259.183 233.436 259.444 233.268 259.817C233.1 260.19 233.087 260.569 233.229 260.953C233.373 261.341 233.633 261.622 234.01 261.795C234.386 261.968 234.769 261.982 235.157 261.838L235.534 261.699C235.923 261.555 236.203 261.295 236.376 260.918C236.549 260.542 236.564 260.16 236.42 259.771C236.417 259.765 236.415 259.759 236.413 259.752C236.41 259.746 236.408 259.74 236.405 259.733C236.254 259.356 235.992 259.085 235.621 258.921C235.249 258.756 234.873 258.744 234.492 258.886L234.115 259.025V259.025Z" fill="#016D71"/>
<rect width="17.8898" height="4.0505" rx="2" transform="matrix(-0.656059 -0.75471 -0.75471 0.656059 86.9648 162.731)" fill="#016D71"/>
<rect x="76.973" y="185.333" width="17.8898" height="4.0505" rx="2" transform="rotate(180 76.973 185.333)" fill="#016D71"/>
<rect x="78.3699" y="174.394" width="17.8898" height="4.0505" rx="2" transform="rotate(-160 78.3699 174.394)" fill="#016D71"/>
<path fill-rule="evenodd" clip-rule="evenodd" d="M185.496 93.9832C185.339 93.7238 185.18 93.4693 185.018 93.2197C180.94 86.9469 175.102 83.8105 167.503 83.8105C159.782 83.8105 153.893 87.0244 149.837 93.4521C149.678 93.7037 149.522 93.9603 149.368 94.2219C149.159 94.5793 148.854 94.8103 148.453 94.915C148.053 95.0197 147.673 94.9673 147.316 94.758C147.144 94.6574 146.999 94.5279 146.878 94.3693C146.758 94.2107 146.673 94.0352 146.623 93.8428C146.573 93.6503 146.561 93.4556 146.588 93.2585C146.616 93.0615 146.679 92.8771 146.78 92.7055C151.425 84.7755 158.333 80.8105 167.503 80.8105C176.533 80.8105 183.387 84.6846 188.064 92.4328C188.278 92.7874 188.336 93.1658 188.236 93.5679C188.137 93.97 187.91 94.2781 187.555 94.4922C187.201 94.7062 186.822 94.7636 186.42 94.6642C186.018 94.5648 185.71 94.3378 185.496 93.9832V93.9832Z" fill="#016D71"/>
<path fill-rule="evenodd" clip-rule="evenodd" d="M195.305 83.381C195.017 83.0482 194.727 82.7219 194.434 82.4022C187.21 74.5162 178.212 70.5732 167.442 70.5732C156.654 70.5732 147.646 74.5269 140.419 82.4341C140.127 82.7543 139.837 83.0809 139.55 83.414C139.42 83.5647 139.267 83.6849 139.089 83.7745C138.912 83.8641 138.724 83.9163 138.525 83.9312C138.327 83.946 138.133 83.9223 137.944 83.8601C137.755 83.7979 137.586 83.7019 137.435 83.5721C137.121 83.3018 136.948 82.9602 136.918 82.5471C136.887 82.1341 137.006 81.7706 137.277 81.4567C145.245 72.201 155.3 67.5732 167.442 67.5732C179.564 67.5732 189.609 72.1892 197.576 81.421C197.846 81.7346 197.967 82.0979 197.936 82.511C197.906 82.9241 197.734 83.266 197.42 83.5366C197.27 83.6666 197.1 83.7627 196.911 83.8252C196.722 83.8876 196.529 83.9115 196.33 83.8969C196.132 83.8823 195.944 83.8303 195.766 83.7409C195.588 83.6515 195.435 83.5315 195.305 83.381V83.381Z" fill="#016D71"/>
<path fill-rule="evenodd" clip-rule="evenodd" d="M206.903 73.9516C206.527 73.5873 206.149 73.2292 205.768 72.8774C194.986 62.9175 182.225 57.9375 167.484 57.9375C152.684 57.9375 139.884 62.9528 129.086 72.9835C128.706 73.3364 128.328 73.6955 127.953 74.0609C127.811 74.1997 127.647 74.3059 127.462 74.3797C127.278 74.4534 127.086 74.489 126.887 74.4864C126.688 74.4838 126.497 74.4432 126.314 74.3647C126.132 74.2862 125.971 74.1757 125.832 74.0333C125.543 73.7366 125.401 73.3811 125.407 72.967C125.412 72.5528 125.563 72.2012 125.86 71.9121C137.475 60.5957 151.35 54.9375 167.484 54.9375C183.556 54.9375 197.391 60.5574 208.991 71.7971C209.288 72.0854 209.44 72.4366 209.447 72.8507C209.453 73.2649 209.312 73.6207 209.024 73.9182C208.886 74.061 208.725 74.1719 208.543 74.251C208.36 74.33 208.169 74.371 207.97 74.3742C207.772 74.3773 207.58 74.3422 207.395 74.269C207.21 74.1958 207.046 74.09 206.903 73.9516V73.9516Z" fill="#016D71"/>
<path fill-rule="evenodd" clip-rule="evenodd" d="M172.442 121.052C174.473 116.074 181.522 116.074 183.553 121.052L245.624 273.171C247.234 277.117 244.331 281.438 240.069 281.438H115.926C111.663 281.438 108.76 277.117 110.371 273.171L172.442 121.052Z" fill="#0DB4B8"/>
<path fill-rule="evenodd" clip-rule="evenodd" d="M236.625 267.172L174.552 115.05C174.091 113.921 173.355 113.017 172.343 112.337C171.332 111.657 170.216 111.317 168.997 111.317C167.778 111.317 166.663 111.657 165.651 112.337C164.639 113.017 163.903 113.921 163.443 115.05L101.37 267.172C100.992 268.097 100.855 269.057 100.957 270.05C101.058 271.044 101.388 271.956 101.945 272.785C102.502 273.614 103.222 274.263 104.103 274.733C104.985 275.203 105.925 275.438 106.924 275.438H231.07C232.069 275.438 233.009 275.203 233.891 274.733C234.773 274.263 235.492 273.614 236.049 272.785C236.607 271.956 236.936 271.044 237.038 270.05C237.14 269.057 237.002 268.097 236.625 267.172V267.172ZM168.998 114.317C170.341 114.317 171.267 114.939 171.774 116.183L233.847 268.306C234.25 269.292 234.154 270.227 233.56 271.112C232.965 271.996 232.136 272.438 231.07 272.438H106.925C105.859 272.438 105.03 271.996 104.435 271.112C103.841 270.227 103.745 269.292 104.148 268.306L166.221 116.183C166.728 114.939 167.654 114.317 168.998 114.317V114.317Z" fill="#016D71"/>
<rect x="133.997" y="258.438" width="70" height="3" rx="1.5" fill="#016D71"/>
<path fill-rule="evenodd" clip-rule="evenodd" d="M173.997 100.438C173.997 103.751 171.311 106.438 167.997 106.438C164.684 106.438 161.997 103.751 161.997 100.438C161.997 97.1238 164.684 94.4375 167.997 94.4375C171.311 94.4375 173.997 97.1238 173.997 100.438V100.438ZM170.997 100.438C170.997 102.438 169.997 103.438 167.997 103.438C165.997 103.438 164.997 102.438 164.997 100.438C164.997 98.4375 165.997 97.4375 167.997 97.4375C169.997 97.4375 170.997 98.4375 170.997 100.438V100.438Z" fill="#016D71"/>
<circle cx="122.497" cy="195.938" r="43.5" fill="#F8F8F8"/>
<circle cx="119.997" cy="198.438" r="36" fill="#089DA1"/>
<path fill-rule="evenodd" clip-rule="evenodd" d="M158.997 194.438C158.997 214.32 142.88 230.438 122.997 230.438C103.115 230.438 86.9973 214.32 86.9973 194.438C86.9973 174.555 103.115 158.438 122.997 158.438C142.88 158.438 158.997 174.555 158.997 194.438V194.438ZM146.332 217.772C139.888 224.216 132.11 227.438 122.997 227.438C113.885 227.437 106.106 224.216 99.6628 217.772C93.2191 211.328 89.9973 203.55 89.9973 194.438C89.9973 185.325 93.2191 177.547 99.6628 171.103C106.106 164.659 113.885 161.438 122.997 161.438C132.11 161.438 139.888 164.659 146.332 171.103C152.775 177.547 155.997 185.325 155.997 194.438C155.997 203.55 152.775 211.328 146.332 217.772V217.772Z" fill="#016D71"/>
<path fill-rule="evenodd" clip-rule="evenodd" d="M120.164 174.433C120.073 172.806 121.368 171.438 122.997 171.438V171.438C124.627 171.438 125.921 172.806 125.831 174.433L124.053 206.439C124.022 206.999 123.558 207.438 122.997 207.438V207.438C122.436 207.438 121.973 206.999 121.942 206.439L120.164 174.433Z" fill="#016D71"/>
<circle cx="122.997" cy="214.438" r="3" fill="#016D71"/>
</svg>
