<svg width="320" height="350" viewBox="0 0 320 350" fill="none" xmlns="http://www.w3.org/2000/svg">
<path fill-rule="evenodd" clip-rule="evenodd" d="M242.211 125.195C272.823 163.054 306.994 198.52 303.693 230.49C300.457 262.396 259.62 290.807 220.531 301.551C181.377 312.229 143.97 305.239 105.98 290.354C68.0558 275.534 29.5487 252.818 19.6469 220.459C9.80978 188.165 28.5779 146.163 56.3419 108.95C84.1058 71.8024 120.865 39.3788 152.707 43.3266C184.612 47.2097 211.6 87.3994 242.211 125.195Z" fill="#F8F8F8"/>
<circle cx="129.998" cy="293.438" r="3" fill="#1AD6CA"/>
<circle cx="269.998" cy="191.438" r="5" fill="#1A9ED6"/>
<circle cx="104.998" cy="60.4375" r="5" fill="#0ED6B2"/>
<path fill-rule="evenodd" clip-rule="evenodd" d="M92.5798 119.301C92.525 119.297 92.47 119.294 92.415 119.291C89.2214 119.105 86.0312 119.19 82.8441 119.546C82.6464 119.568 82.452 119.551 82.261 119.496C82.0699 119.44 81.8967 119.351 81.7413 119.226C81.5885 119.104 81.4644 118.958 81.3689 118.787C81.2734 118.617 81.2136 118.434 81.1894 118.24C81.189 118.237 81.1886 118.234 81.1882 118.231C81.1879 118.227 81.1875 118.224 81.1871 118.221C81.1412 117.809 81.2476 117.442 81.5062 117.118C81.7649 116.795 82.1 116.61 82.5117 116.564C85.9249 116.183 89.3418 116.097 92.7624 116.306C93.1759 116.331 93.5198 116.499 93.7944 116.809C94.0689 117.119 94.1935 117.481 94.1683 117.895C94.1562 118.093 94.1066 118.282 94.0194 118.461C93.9323 118.639 93.8142 118.795 93.6652 118.927C93.5163 119.058 93.3478 119.157 93.1597 119.222C92.9716 119.286 92.7783 119.313 92.5798 119.301V119.301ZM62.2048 124.261C62.2062 124.264 62.2076 124.267 62.2091 124.27C62.2105 124.273 62.2119 124.276 62.2134 124.278C62.3981 124.645 62.685 124.894 63.074 125.025C63.4629 125.156 63.8418 125.131 64.2107 124.951C67.1356 123.524 70.1643 122.356 73.2967 121.448C73.6909 121.333 73.9881 121.097 74.1883 120.739C74.3885 120.38 74.434 120.003 74.3248 119.608C74.3239 119.605 74.3231 119.602 74.3222 119.598C74.3213 119.595 74.3204 119.592 74.3195 119.589C74.2641 119.398 74.1743 119.225 74.05 119.07C73.9257 118.914 73.7764 118.789 73.6022 118.693C73.4279 118.597 73.2419 118.538 73.0442 118.516C72.8465 118.494 72.6522 118.511 72.4611 118.566C69.1634 119.523 65.9747 120.752 62.8949 122.255C62.7162 122.342 62.5609 122.461 62.4292 122.61C62.2974 122.759 62.1991 122.927 62.1344 123.115C62.0697 123.303 62.0434 123.497 62.0556 123.695C62.0678 123.894 62.1175 124.082 62.2048 124.261V124.261ZM46.3951 136.352C46.3975 136.354 46.3998 136.356 46.4021 136.359C46.4045 136.361 46.4068 136.363 46.4092 136.365C46.5512 136.5 46.7134 136.602 46.8956 136.673C47.0778 136.744 47.2667 136.778 47.4622 136.776C47.6611 136.773 47.8518 136.732 48.0345 136.653C48.2171 136.574 48.3777 136.463 48.5162 136.321C50.7837 133.985 53.2349 131.863 55.8697 129.954C56.0308 129.838 56.1635 129.695 56.2677 129.525C56.3718 129.356 56.4396 129.173 56.471 128.976C56.5019 128.783 56.4953 128.592 56.4512 128.401C56.407 128.211 56.3287 128.035 56.216 127.876C56.2142 127.873 56.2123 127.87 56.2104 127.868C56.2085 127.865 56.2066 127.862 56.2047 127.86C55.9617 127.524 55.6357 127.324 55.2267 127.258C54.8177 127.193 54.4455 127.282 54.11 127.525C51.3344 129.535 48.7523 131.77 46.3637 134.231C46.0752 134.528 45.934 134.884 45.9401 135.298C45.9463 135.712 46.0979 136.063 46.3951 136.352V136.352ZM35.5729 153.113C35.5759 153.114 35.5788 153.115 35.5818 153.117C35.5847 153.118 35.5877 153.119 35.5906 153.12C35.9662 153.286 36.3458 153.296 36.7293 153.149C37.1129 153.003 37.3898 152.744 37.5601 152.37C38.7266 149.812 40.0814 147.345 41.6246 144.969C41.8649 144.599 42.1093 144.232 42.3577 143.868C42.4699 143.704 42.5463 143.524 42.587 143.33C42.6277 143.135 42.6296 142.94 42.5928 142.744C42.5565 142.552 42.4853 142.374 42.3793 142.21C42.2733 142.045 42.1402 141.907 41.98 141.794C41.9774 141.793 41.9748 141.791 41.9722 141.789C41.9696 141.787 41.967 141.785 41.9643 141.784C41.6222 141.55 41.2476 141.472 40.8406 141.549C40.4336 141.625 40.1133 141.835 39.8798 142.177C39.6185 142.56 39.3614 142.946 39.1086 143.335C37.4846 145.836 36.0586 148.433 34.8306 151.125C34.748 151.306 34.7033 151.496 34.6963 151.695C34.6893 151.894 34.7206 152.086 34.7902 152.273C34.8598 152.459 34.9624 152.625 35.098 152.77C35.2336 152.916 35.3919 153.03 35.5729 153.113V153.113ZM31.0586 172.515C31.0618 172.515 31.065 172.515 31.0682 172.516C31.0715 172.516 31.0747 172.516 31.0779 172.516C31.273 172.53 31.4634 172.506 31.6492 172.445C31.8349 172.384 32.0023 172.29 32.1514 172.163C32.303 172.034 32.4242 171.881 32.515 171.704C32.6058 171.527 32.6593 171.34 32.6754 171.142C32.94 167.894 33.4815 164.696 34.3001 161.549C34.4034 161.152 34.3523 160.776 34.1468 160.42C33.9413 160.065 33.6406 159.833 33.2448 159.725C33.2417 159.724 33.2385 159.723 33.2354 159.722C33.2322 159.722 33.2291 159.721 33.2259 159.72C32.8251 159.616 32.446 159.668 32.0888 159.878C31.7317 160.088 31.5009 160.393 31.3967 160.794C30.5344 164.109 29.964 167.477 29.6853 170.898C29.6517 171.311 29.7689 171.675 30.0371 171.991C30.3052 172.307 30.6457 172.481 31.0586 172.515V172.515ZM32.722 180.872C32.6849 180.464 32.5095 180.127 32.1958 179.862C31.8822 179.597 31.5208 179.481 31.1116 179.513C31.1084 179.513 31.1052 179.513 31.102 179.514C31.0988 179.514 31.0956 179.514 31.0924 179.514C30.8943 179.532 30.7072 179.588 30.531 179.68C30.3549 179.773 30.2032 179.895 30.0758 180.048C29.9485 180.201 29.8552 180.372 29.7961 180.562C29.7369 180.752 29.7163 180.946 29.7343 181.144C30.0447 184.558 30.644 187.922 31.5321 191.235C31.6393 191.635 31.8723 191.938 32.2311 192.145C32.5898 192.352 32.9692 192.402 33.3693 192.295C33.3724 192.294 33.3755 192.293 33.3786 192.293C33.3817 192.292 33.3848 192.291 33.3879 192.29C33.5761 192.237 33.7474 192.15 33.9018 192.03C34.0562 191.91 34.1823 191.765 34.28 191.596C34.3795 191.424 34.4422 191.239 34.4681 191.042C34.4941 190.845 34.4813 190.65 34.4298 190.458C33.5861 187.311 33.0169 184.116 32.722 180.872V180.872ZM42.3792 210.064C42.3774 210.065 42.3756 210.067 42.3738 210.068C42.372 210.069 42.3702 210.07 42.3684 210.072C42.0271 210.306 41.6528 210.386 41.2455 210.311C40.8382 210.235 40.5172 210.027 40.2824 209.686C38.815 207.552 37.3754 205.258 35.9635 202.804C35.9568 202.792 35.9502 202.78 35.9439 202.768C35.9375 202.757 35.9312 202.745 35.9252 202.733C35.614 202.117 35.3135 201.497 35.0237 200.871C34.8497 200.495 34.8341 200.112 34.9769 199.724C35.1197 199.335 35.379 199.053 35.7549 198.879C35.7578 198.878 35.7607 198.877 35.7637 198.875C35.7666 198.874 35.7696 198.873 35.7725 198.871C35.951 198.792 36.138 198.748 36.3334 198.741C36.5289 198.735 36.7184 198.765 36.902 198.833C37.0887 198.901 37.2552 199.003 37.4015 199.138C37.5478 199.272 37.6627 199.43 37.7462 199.611C38.0158 200.193 38.2951 200.77 38.5841 201.343C39.9494 203.714 41.3395 205.929 42.7543 207.986C42.867 208.15 42.9441 208.329 42.9855 208.523C43.0269 208.718 43.0295 208.913 42.9933 209.109C42.9576 209.302 42.8865 209.481 42.7802 209.647C42.6739 209.812 42.5402 209.951 42.3791 210.064L42.3792 210.064ZM47.807 215.223C47.6115 215.214 47.4217 215.243 47.2375 215.309C47.0532 215.375 46.8883 215.474 46.7425 215.604C46.7402 215.606 46.7379 215.608 46.7356 215.61C46.7333 215.612 46.731 215.615 46.7287 215.617C46.4236 215.897 46.2623 216.244 46.2447 216.658C46.2271 217.072 46.3584 217.431 46.6386 217.736C49.1112 220.428 51.6567 222.712 54.2751 224.588C54.6118 224.83 54.9845 224.916 55.3931 224.849C55.8018 224.781 56.1268 224.579 56.3681 224.243C56.3708 224.239 56.3736 224.235 56.3763 224.231C56.379 224.227 56.3818 224.223 56.3844 224.219C56.6161 223.883 56.6967 223.513 56.6263 223.111C56.5559 222.708 56.3546 222.388 56.0224 222.15C53.5721 220.394 51.1807 218.246 48.8481 215.707C48.7135 215.56 48.5561 215.445 48.3757 215.361C48.1953 215.277 48.0058 215.231 47.807 215.223V215.223ZM64.4467 226.563C64.0615 226.432 63.6852 226.454 63.3177 226.629C62.9502 226.804 62.6961 227.082 62.5552 227.464C62.5531 227.47 62.551 227.475 62.5489 227.481C62.5468 227.487 62.5448 227.493 62.5428 227.499C62.4786 227.687 62.4528 227.88 62.4656 228.079C62.4783 228.277 62.5285 228.466 62.6162 228.644C62.7039 228.823 62.8225 228.978 62.9718 229.109C63.1212 229.241 63.29 229.338 63.4783 229.403C66.7042 230.503 70.0208 231.053 73.428 231.053C73.8422 231.053 74.1957 230.907 74.4886 230.614C74.7815 230.321 74.928 229.967 74.928 229.553C74.928 229.188 74.8103 228.866 74.5751 228.587C74.3399 228.307 74.0423 228.137 73.6825 228.075C73.6405 228.068 73.5982 228.062 73.5557 228.058C73.5132 228.055 73.4706 228.053 73.428 228.053C70.3525 228.053 67.3588 227.556 64.4467 226.563V226.563Z" fill="#016D71"/>
<rect width="18" height="4" rx="2" transform="matrix(0.981627 -0.190809 -0.190809 -0.981627 251.467 94.5933)" fill="#016D71"/>
<rect x="237.145" y="75.0039" width="18" height="4" rx="2" transform="rotate(-60 237.145 75.0039)" fill="#016D71"/>
<rect x="245.812" y="81.5298" width="18" height="4" rx="2" transform="rotate(-40 245.812 81.5298)" fill="#016D71"/>
<path fill-rule="evenodd" clip-rule="evenodd" d="M106.431 98.1345C107.085 93.1581 111.326 89.4375 116.346 89.4375H230.648C235.667 89.4375 239.909 93.1581 240.563 98.1345L257.911 230.134C258.698 236.123 254.037 241.438 247.996 241.438H98.9975C92.9571 241.438 88.2956 236.123 89.0827 230.134L106.431 98.1345Z" fill="#0DB4B8"/>
<path fill-rule="evenodd" clip-rule="evenodd" d="M215.649 98.4375H101.345C98.8356 98.4375 96.6377 99.2649 94.7513 100.92C92.8649 102.574 91.7581 104.646 91.4312 107.134L74.0827 239.136C73.8952 240.563 74.0104 241.965 74.4285 243.343C74.8466 244.72 75.5303 245.95 76.4796 247.032C77.4288 248.114 78.5591 248.952 79.8703 249.546C81.1816 250.14 82.557 250.438 83.9965 250.438H232.998C234.437 250.438 235.813 250.14 237.124 249.546C238.435 248.952 239.565 248.114 240.515 247.032C241.464 245.95 242.147 244.72 242.566 243.343C242.984 241.965 243.099 240.563 242.911 239.136L225.563 107.134C225.236 104.646 224.129 102.574 222.243 100.92C220.356 99.2649 218.159 98.4375 215.649 98.4375V98.4375ZM96.7293 103.175C98.0498 102.017 99.5882 101.438 101.345 101.438H215.649C217.405 101.438 218.944 102.017 220.264 103.175C221.585 104.333 222.359 105.783 222.588 107.524L239.937 239.526C240.212 241.622 239.653 243.465 238.259 245.054C236.865 246.643 235.111 247.438 232.997 247.438H83.9963C81.8825 247.438 80.1286 246.643 78.7347 245.054C77.3407 243.465 76.7815 241.622 77.0569 239.526L94.4054 107.524C94.6342 105.783 95.4089 104.333 96.7293 103.175V103.175Z" fill="#016D71"/>
<path fill-rule="evenodd" clip-rule="evenodd" d="M124.998 99.4375H123.498C123.498 89.6388 126.912 81.274 133.741 74.3431C140.576 67.406 148.828 63.9375 158.498 63.9375C168.167 63.9375 176.419 67.406 183.254 74.3431C190.083 81.274 193.498 89.6388 193.498 99.4375H190.498C190.498 90.4585 187.371 82.7956 181.117 76.4486C174.87 70.1079 167.33 66.9375 158.498 66.9375C149.665 66.9375 142.126 70.1079 135.878 76.4486C129.624 82.7956 126.498 90.4586 126.498 99.4375H124.998V99.4375Z" fill="#016D71"/>
<circle cx="124.998" cy="113.438" r="3" fill="#016D71"/>
<circle cx="191.998" cy="113.438" r="3" fill="#016D71"/>
<rect x="165.998" y="204.438" width="73" height="3" rx="1.5" fill="#016D71"/>
<rect x="156.998" y="217.438" width="82" height="3" rx="1.5" fill="#016D71"/>
<rect x="144.998" y="230.438" width="96" height="3" rx="1.5" fill="#016D71"/>
<circle cx="86.9976" cy="229.438" r="44" fill="#F8F8F8"/>
<circle cx="81.9976" cy="235.438" r="32" fill="#089DA1"/>
<path fill-rule="evenodd" clip-rule="evenodd" d="M120.998 230.438C120.998 248.111 106.671 262.438 88.9976 262.438C71.3244 262.438 56.9976 248.111 56.9976 230.438C56.9976 212.764 71.3244 198.438 88.9976 198.438C106.671 198.438 120.998 212.764 120.998 230.438V230.438ZM109.504 250.944C103.841 256.606 97.0057 259.438 88.9976 259.438C80.9894 259.438 74.1541 256.606 68.4915 250.944C62.8289 245.281 59.9976 238.446 59.9976 230.438C59.9976 222.429 62.8289 215.594 68.4915 209.931C74.1541 204.269 80.9894 201.438 88.9976 201.438C97.0057 201.438 103.841 204.269 109.504 209.931C115.166 215.594 117.998 222.429 117.998 230.438C117.998 238.446 115.166 245.281 109.504 250.944V250.944Z" fill="#016D71"/>
<rect x="86.9976" y="223.438" width="5" height="28" rx="2.5" fill="#016D71"/>
<circle cx="89.4976" cy="216.938" r="3.5" fill="#016D71"/>
</svg>
