<svg width="320" height="350" viewBox="0 0 320 350" fill="none" xmlns="http://www.w3.org/2000/svg">
<path fill-rule="evenodd" clip-rule="evenodd" d="M242.211 120.195C272.823 158.054 306.994 193.52 303.693 225.49C300.457 257.396 259.62 285.807 220.531 296.551C181.377 307.229 143.97 300.239 105.98 285.354C68.0558 270.534 29.5487 247.818 19.6469 215.459C9.80978 183.165 28.5779 141.163 56.3419 103.95C84.1058 66.8024 120.865 34.3788 152.707 38.3266C184.612 42.2097 211.6 82.3994 242.211 120.195Z" fill="#F8F8F8"/>
<circle cx="58.9976" cy="264.437" r="3" fill="#1AD6CA"/>
<circle cx="196.998" cy="268.437" r="5" fill="#1A9ED6"/>
<ellipse cx="144.998" cy="44.4375" rx="5" ry="5" fill="#0ED6B2"/>
<path fill-rule="evenodd" clip-rule="evenodd" d="M103.58 114.3C103.525 114.297 103.47 114.293 103.415 114.29C100.221 114.105 97.0312 114.19 93.8441 114.545C93.4362 114.591 93.0711 114.486 92.7488 114.232C92.4266 113.978 92.2401 113.647 92.1894 113.24C92.189 113.236 92.1886 113.233 92.1882 113.23C92.1879 113.227 92.1875 113.224 92.1871 113.22C92.1412 112.809 92.2476 112.441 92.5062 112.118C92.7649 111.794 93.1 111.609 93.5117 111.564C96.9249 111.183 100.342 111.097 103.762 111.306C104.176 111.331 104.52 111.499 104.794 111.809C105.069 112.119 105.194 112.481 105.168 112.894C105.143 113.308 104.975 113.652 104.665 113.926C104.355 114.201 103.993 114.325 103.58 114.3V114.3ZM73.2043 119.261C73.2057 119.264 73.2071 119.266 73.2086 119.269C73.21 119.272 73.2115 119.275 73.2129 119.278C73.3009 119.453 73.4186 119.604 73.566 119.733C73.7133 119.861 73.8794 119.958 74.0643 120.021C74.2524 120.086 74.4457 120.112 74.6443 120.1C74.8428 120.088 75.0314 120.038 75.2102 119.951C78.1352 118.523 81.1638 117.355 84.2962 116.447C84.6904 116.333 84.9876 116.096 85.1878 115.738C85.3881 115.38 85.4336 115.003 85.3243 114.607C85.3235 114.604 85.3226 114.601 85.3217 114.598C85.3208 114.595 85.32 114.592 85.3191 114.589C85.2637 114.398 85.1738 114.224 85.0495 114.069C84.9252 113.914 84.776 113.788 84.6017 113.692C84.4274 113.596 84.2415 113.538 84.0438 113.516C83.8461 113.494 83.6517 113.51 83.4607 113.566C80.1629 114.522 76.9742 115.752 73.8945 117.255C73.5222 117.436 73.2687 117.723 73.1339 118.115C72.9992 118.506 73.0226 118.888 73.2043 119.261V119.261ZM57.3951 131.351C57.3975 131.354 57.3998 131.356 57.4021 131.358C57.4045 131.36 57.4068 131.363 57.4092 131.365C57.5512 131.499 57.7134 131.602 57.8956 131.673C58.0778 131.744 58.2667 131.778 58.4622 131.775C58.6611 131.772 58.8518 131.731 59.0345 131.652C59.2171 131.574 59.3777 131.463 59.5162 131.32C61.7838 128.984 64.2349 126.862 66.8697 124.954C67.0308 124.837 67.1635 124.694 67.2677 124.525C67.3718 124.355 67.4396 124.172 67.4711 123.976C67.5019 123.783 67.4953 123.591 67.4512 123.401C67.4071 123.21 67.3287 123.035 67.2161 122.875C67.2142 122.872 67.2123 122.87 67.2104 122.867C67.2085 122.865 67.2066 122.862 67.2047 122.859C66.9617 122.524 66.6358 122.323 66.2267 122.258C65.8177 122.193 65.4455 122.281 65.11 122.524C62.3344 124.535 59.7523 126.77 57.3637 129.23C57.0752 129.528 56.934 129.883 56.9401 130.297C56.9463 130.712 57.0979 131.063 57.3951 131.351V131.351ZM46.5724 148.112C46.5754 148.113 46.5783 148.115 46.5813 148.116C46.5842 148.117 46.5872 148.119 46.5901 148.12C46.9657 148.285 47.3453 148.295 47.7288 148.149C48.1124 148.003 48.3893 147.743 48.5596 147.37C49.7261 144.812 51.0809 142.345 52.6241 139.969C52.8644 139.599 53.1088 139.232 53.3573 138.868C53.5886 138.529 53.6676 138.157 53.594 137.753C53.5204 137.349 53.3156 137.03 52.9796 136.794C52.977 136.792 52.9743 136.79 52.9717 136.788C52.9691 136.787 52.9665 136.785 52.9638 136.783C52.6217 136.55 52.2471 136.471 51.8401 136.548C51.4331 136.625 51.1128 136.834 50.8793 137.176C50.618 137.559 50.3609 137.946 50.1081 138.335C48.4841 140.835 47.0581 143.432 45.8301 146.125C45.7476 146.306 45.7028 146.496 45.6958 146.694C45.6888 146.893 45.7201 147.086 45.7897 147.272C45.8593 147.458 45.9619 147.624 46.0975 147.77C46.2332 147.915 46.3914 148.029 46.5724 148.112V148.112ZM42.0586 167.514C42.0618 167.515 42.065 167.515 42.0682 167.515C42.0715 167.515 42.0747 167.516 42.0779 167.516C42.273 167.529 42.4634 167.505 42.6492 167.444C42.8349 167.383 43.0023 167.289 43.1514 167.163C43.303 167.034 43.4242 166.881 43.515 166.704C43.6058 166.527 43.6593 166.339 43.6754 166.141C43.94 162.894 44.4815 159.696 45.3001 156.549C45.4034 156.151 45.3523 155.775 45.1468 155.42C44.9413 155.065 44.6406 154.833 44.2448 154.724C44.2417 154.724 44.2385 154.723 44.2354 154.722C44.2322 154.721 44.2291 154.72 44.2259 154.719C43.8251 154.615 43.446 154.668 43.0888 154.878C42.7317 155.087 42.5009 155.393 42.3967 155.794C41.5344 159.109 40.964 162.477 40.6853 165.898C40.6517 166.31 40.7689 166.675 41.0371 166.99C41.3052 167.306 41.6457 167.481 42.0586 167.514V167.514ZM43.722 175.872C43.6848 175.463 43.5095 175.126 43.1958 174.862C42.8822 174.597 42.5208 174.48 42.1116 174.512C42.1084 174.513 42.1052 174.513 42.102 174.513C42.0988 174.513 42.0956 174.514 42.0924 174.514C41.8943 174.532 41.7072 174.587 41.531 174.68C41.3549 174.772 41.2032 174.895 41.0758 175.047C40.9485 175.2 40.8552 175.372 40.7961 175.562C40.7369 175.751 40.7163 175.945 40.7343 176.144C41.0447 179.558 41.644 182.921 42.5321 186.234C42.6393 186.634 42.8723 186.938 43.2311 187.145C43.5898 187.352 43.9692 187.402 44.3693 187.295C44.3724 187.294 44.3755 187.293 44.3786 187.292C44.3817 187.291 44.3848 187.29 44.3879 187.289C44.5761 187.236 44.7474 187.15 44.9018 187.03C45.0562 186.91 45.1823 186.765 45.28 186.596C45.3795 186.423 45.4422 186.239 45.4681 186.041C45.4941 185.844 45.4813 185.649 45.4298 185.457C44.5861 182.31 44.0169 179.115 43.722 175.872V175.872ZM53.3792 205.064C53.3774 205.065 53.3756 205.066 53.3738 205.067C53.372 205.069 53.3702 205.07 53.3684 205.071C53.0271 205.306 52.6528 205.386 52.2455 205.31C51.8382 205.235 51.5172 205.027 51.2824 204.685C49.815 202.552 48.3754 200.258 46.9635 197.803C46.9568 197.792 46.9502 197.78 46.9439 197.768C46.9375 197.756 46.9312 197.744 46.9252 197.732C46.614 197.117 46.3135 196.496 46.0237 195.87C45.8497 195.494 45.8341 195.112 45.9769 194.723C46.1197 194.334 46.379 194.053 46.7549 193.879C46.7578 193.878 46.7607 193.876 46.7637 193.875C46.7666 193.873 46.7695 193.872 46.7725 193.871C46.951 193.791 47.138 193.748 47.3334 193.741C47.5289 193.734 47.7184 193.765 47.902 193.832C48.0887 193.901 48.2552 194.002 48.4015 194.137C48.5478 194.272 48.6627 194.43 48.7462 194.61C49.0158 195.192 49.2951 195.77 49.5841 196.342C50.9494 198.714 52.3395 200.928 53.7543 202.985C53.867 203.149 53.9441 203.328 53.9855 203.523C54.0269 203.717 54.0295 203.913 53.9933 204.108C53.9576 204.301 53.8865 204.481 53.7802 204.646C53.6739 204.812 53.5402 204.951 53.3791 205.064L53.3792 205.064ZM58.8066 210.222C58.611 210.214 58.4212 210.243 58.237 210.309C58.0528 210.375 57.8878 210.473 57.742 210.604C57.7397 210.606 57.7374 210.608 57.7351 210.61C57.7328 210.612 57.7305 210.614 57.7282 210.616C57.4231 210.896 57.2618 211.243 57.2442 211.657C57.2266 212.071 57.358 212.43 57.6381 212.736C60.1107 215.428 62.6561 217.712 65.2746 219.588C65.4363 219.704 65.614 219.784 65.8077 219.829C66.0014 219.874 66.1964 219.881 66.3927 219.848C66.5889 219.816 66.7715 219.747 66.9404 219.642C67.1093 219.537 67.2517 219.404 67.3676 219.242C67.3703 219.238 67.3731 219.234 67.3758 219.231C67.3785 219.227 67.3813 219.223 67.3839 219.219C67.6156 218.882 67.6962 218.513 67.6258 218.11C67.5554 217.708 67.3541 217.387 67.0219 217.149C64.5717 215.394 62.1802 213.246 59.8476 210.706C59.7131 210.56 59.5556 210.445 59.3752 210.361C59.1948 210.277 59.0053 210.231 58.8066 210.222V210.222ZM74.301 221.636C74.1282 221.721 73.9774 221.835 73.8485 221.978C73.7195 222.121 73.6218 222.283 73.5552 222.463C73.553 222.469 73.5509 222.475 73.5489 222.481C73.5468 222.486 73.5448 222.492 73.5428 222.498C73.4091 222.89 73.4335 223.272 73.6162 223.644C73.7989 224.016 74.0862 224.268 74.4782 224.402C77.7041 225.502 81.0207 226.053 84.428 226.053C84.8422 226.053 85.1957 225.906 85.4886 225.613C85.7815 225.32 85.928 224.967 85.928 224.553C85.928 224.187 85.8103 223.865 85.5751 223.586C85.3399 223.307 85.0423 223.136 84.6825 223.074C84.6405 223.067 84.5982 223.062 84.5557 223.058C84.5132 223.054 84.4706 223.053 84.428 223.053C81.3524 223.053 78.3587 222.556 75.4467 221.563C75.2584 221.498 75.0651 221.473 74.8666 221.485C74.6681 221.498 74.4795 221.548 74.301 221.636V221.636Z" fill="#016D71"/>
<rect width="18" height="4" rx="2" transform="matrix(0.981627 -0.190809 -0.190809 -0.981627 261.466 77.5938)" fill="#016D71"/>
<rect x="247.144" y="58.0044" width="18" height="4" rx="2" transform="rotate(-60 247.144 58.0044)" fill="#016D71"/>
<rect x="255.816" y="64.5298" width="18" height="4" rx="2" transform="rotate(-40 255.816 64.5298)" fill="#016D71"/>
<path fill-rule="evenodd" clip-rule="evenodd" d="M257.998 84.1133V211.438C257.998 222.483 249.044 231.438 237.998 231.438H136.998C125.952 231.438 116.998 222.483 116.998 211.438V78.4375C116.998 67.3918 125.952 58.4375 136.998 58.4375H234.692" fill="#0DB4B8"/>
<path fill-rule="evenodd" clip-rule="evenodd" d="M243.998 94.1133V221.438C243.998 232.483 235.044 241.438 223.998 241.438H122.998C111.952 241.438 102.998 232.483 102.998 221.438V88.4375C102.998 77.3918 111.952 68.4375 122.998 68.4375H220.692V71.4375L122.998 71.4375C118.304 71.4375 114.297 73.0972 110.977 76.4167C107.658 79.7361 105.998 83.7431 105.998 88.4375L105.998 221.438C105.998 226.132 107.658 230.139 110.977 233.458C114.297 236.778 118.304 238.437 122.998 238.438H223.998C228.692 238.438 232.699 236.778 236.019 233.458C239.338 230.139 240.998 226.132 240.998 221.438V94.1133H243.998V94.1133Z" fill="#016D71"/>
<path fill-rule="evenodd" clip-rule="evenodd" d="M243.34 92.3971C243.461 92.5342 243.554 92.6883 243.619 92.8595C243.684 93.0306 243.716 93.2077 243.716 93.3907C243.716 93.8049 243.57 94.1585 243.277 94.4514C242.984 94.7443 242.631 94.8907 242.216 94.8907H225.686C223.445 94.8907 221.579 94.0542 220.088 92.3811C218.596 90.708 217.979 88.7583 218.236 86.5319L220.15 69.9492C220.171 69.7654 220.225 69.5915 220.31 69.4274C220.396 69.2634 220.508 69.12 220.647 68.9975C220.796 68.8657 220.964 68.7675 221.152 68.7028C221.34 68.6381 221.534 68.6118 221.732 68.624C221.931 68.6362 222.119 68.6859 222.298 68.7732C222.477 68.8604 222.632 68.9785 222.764 69.1275L243.34 92.3971V92.3971ZM222.745 73.6346L238.888 91.8907H225.686C224.341 91.8907 223.222 91.3888 222.327 90.3851C221.433 89.3813 221.062 88.2116 221.217 86.8759L222.745 73.6346V73.6346Z" fill="#016D71"/>
<rect x="124.998" y="99.4375" width="60" height="3" rx="1.5" fill="#016D71"/>
<rect x="124.998" y="118.438" width="80" height="3" rx="1.5" fill="#016D71"/>
<rect x="124.998" y="137.438" width="106" height="3" rx="1.5" fill="#016D71"/>
<rect x="124.998" y="156.438" width="106" height="3" rx="1.5" fill="#016D71"/>
<rect x="124.998" y="213.438" width="106" height="3" rx="1.5" fill="#016D71"/>
<rect x="124.998" y="175.438" width="106" height="3" rx="1.5" fill="#016D71"/>
<rect x="124.998" y="194.438" width="106" height="3" rx="1.5" fill="#016D71"/>
<circle cx="108.997" cy="222.436" r="42" fill="#F8F8F8"/>
<ellipse cx="101.996" cy="227.437" rx="31" ry="31" fill="#089DA1"/>
<rect x="130.048" y="243.904" width="3" height="12" rx="1.5" transform="rotate(-45 130.048 243.904)" fill="#016D71"/>
<path fill-rule="evenodd" clip-rule="evenodd" d="M140.656 250.267L138.533 252.39C137.753 253.171 137.362 254.113 137.362 255.218C137.362 256.322 137.753 257.265 138.533 258.045L151.263 270.775C152.044 271.556 152.986 271.946 154.09 271.946C155.195 271.946 156.137 271.556 156.918 270.775L159.041 268.652C159.822 267.871 160.212 266.929 160.212 265.824C160.212 264.72 159.822 263.777 159.041 262.997L146.312 250.267C145.531 249.486 144.588 249.096 143.484 249.096C142.38 249.096 141.437 249.486 140.656 250.267V250.267ZM140.655 255.924C140.184 255.453 140.184 254.982 140.655 254.511L142.777 252.389C143.248 251.918 143.719 251.918 144.19 252.389L156.92 265.118C157.391 265.589 157.391 266.06 156.92 266.531L154.797 268.654C154.326 269.124 153.855 269.124 153.384 268.654L140.655 255.924V255.924Z" fill="#016D71"/>
<path fill-rule="evenodd" clip-rule="evenodd" d="M130.754 199.356C142.861 211.462 142.861 231.09 130.754 243.197C118.648 255.303 99.0201 255.303 86.9138 243.197C74.8076 231.09 74.8076 211.462 86.9138 199.356C99.0201 187.25 118.648 187.25 130.754 199.356V199.356ZM136.834 221.276C136.834 229.008 134.1 235.608 128.633 241.075C123.166 246.543 116.566 249.276 108.834 249.276C101.102 249.276 94.5025 246.543 89.0352 241.075C83.5678 235.608 80.8341 229.008 80.8341 221.276C80.8341 213.544 83.5678 206.945 89.0352 201.477C94.5025 196.01 101.102 193.276 108.834 193.276C116.566 193.276 123.166 196.01 128.633 201.477C134.1 206.945 136.834 213.544 136.834 221.276V221.276Z" fill="#016D71"/>
<rect x="119.749" y="210.062" width="3" height="32" rx="1.5" transform="rotate(45 119.749 210.062)" fill="#016D71"/>
<rect width="3" height="32" rx="1.5" transform="matrix(-0.707107 0.707107 0.707107 0.707107 99.2426 210.061)" fill="#016D71"/>
</svg>
